<svg height="42" viewBox="0 0 110 42" width="110" xmlns="http://www.w3.org/2000/svg" xmlns:xlink="http://www.w3.org/1999/xlink"><defs><path id="a" d="m.362 5.463c1.119-3.443 4.394-5.586 7.86-5.435 1.463.908 3.37 1.506 5.106 1.507.636.462 2.135 1.599 4.501 3.412-.757 2.58-1.302 4.38-1.633 5.4-.642 1.977-2.175 3.921-3.802 4.987-1.124.736-2.907.95-4.275.943-.804-.004-1.914-.389-2.72-.65-2.38-.774-3.922-2.72-4.748-4.88-.62-1.624-.866-3.507-.289-5.285z"/><path id="b" d="m8.11 0c3.608 0 6.65 2.436 7.589 5.761-.419 1.678-.4 3.689.139 5.348l.01.027c-.245.749-.861 2.521-1.85 5.317-2.687.077-4.567.115-5.64.115-2.078 0-4.4-.856-5.917-2.074-1.048-.842-1.802-2.472-2.219-3.775-.19-.596-.218-1.439-.222-2.183v-.605c0-2.502 1.375-4.57 3.175-6.023 1.351-1.091 3.067-1.908 4.935-1.908z"/><path id="c" d="m6.082.492c2.38-.773 4.77-.105 6.71 1.158 1.455.948 2.761 2.327 3.339 4.104 1.12 3.447-.275 7.11-3.174 9.024-1.71.129-3.591.762-4.99 1.775h-.023c-.78 0-2.66-.038-5.641-.114-.904-2.533-1.521-4.31-1.853-5.33-.642-1.976-.545-4.45.145-6.268.476-1.257 1.793-2.477 2.904-3.277.653-.469 1.777-.81 2.583-1.072z"/><path id="d" d="m10.298.106.327.009c1.343.065 2.91.94 4.014 1.75.648.476 1.32 1.44 1.818 2.125 1.47 2.024 1.574 4.505.972 6.739-.452 1.676-1.36 3.346-2.871 4.444-2.927 2.126-6.833 1.937-9.548-.218-.65-1.599-1.843-3.207-3.25-4.23l-.003-.002c-.241-.743-.787-2.543-1.634-5.4 2.129-1.641 3.628-2.778 4.496-3.409 1.681-1.22 4.064-1.893 6.006-1.8z"/><path id="e" d="m8.253.087c2.219 1.518 3.763 2.592 4.631 3.223 1.681 1.221 3.057 3.28 3.568 5.156.353 1.297.004 3.058-.425 4.358-.252.764-.96 1.7-1.459 2.386-1.47 2.024-3.798 2.89-6.108 3.007-1.735.088-3.603-.26-5.114-1.357-2.925-2.126-3.953-5.896-2.745-9.142 1.32-1.112 2.482-2.744 3.02-4.4l.004-.01c.634-.46 2.176-1.533 4.628-3.22z"/><mask id="f" fill="#fff"><use fill="#fff" fill-rule="evenodd" xlink:href="#a"/></mask><mask id="g" fill="#fff"><use fill="#fff" fill-rule="evenodd" xlink:href="#b"/></mask><mask id="h" fill="#fff"><use fill="#fff" fill-rule="evenodd" xlink:href="#c"/></mask><mask id="i" fill="#fff"><use fill="#fff" fill-rule="evenodd" xlink:href="#d"/></mask><mask id="j" fill="#fff"><use fill="#fff" fill-rule="evenodd" xlink:href="#e"/></mask></defs><g fill="none" fill-rule="evenodd"><g transform="translate(.032 15.033)"><use fill="#71278c" xlink:href="#a"/><path d="m9.104 5.142h.008c.05.002.09.006.13.013.026.005.045.011.064.02.035.015.065.047.084.089.014.032.019.065.022.1l.005.054.005.118.001.238v.067l-.001.05-.007.093-.002.032c-.006.086-.008.163-.006.237l.006.103.006.118.002.067c0 .056.002.115.008.171l.024.213c.01.062.02.116.033.164.013.05.03.102.056.164.024.057.044.11.06.16.014.04.03.09.05.139l.024.05.032.049.079.117.048.072.06.096c.018.03.038.06.058.088l.006.01.048.067.021.03c.018.026.035.052.051.079l.012.019c.026.041.05.085.073.126.013.025.026.05.04.073.022.037.043.07.064.101l.038.053.032.044.069.1.046.075.016.027c.026.043.055.086.082.127l.04.062.077.124.04.066.124.196.089.133.037.056c.032.048.062.097.09.145l.034.053.04.064c.025.04.052.083.076.126.024.04.046.082.07.123l.048.088c.02.036.042.07.064.105l.052.086.08.141.031.057c.022.04.045.078.068.117l.052.087.01.017c.015.027.032.055.046.084l.05.101.015.032c.023.047.046.096.072.142l.009.016.032.061c.012.03.025.06.038.098.013.035.024.07.034.109l.006.019c.008.03.016.06.021.09.006.03.01.062.013.092l.004.034c.005.037.007.072.005.105-.002.042-.008.084-.015.127-.005.036-.015.07-.024.1-.022.073-.052.143-.082.207-.029.063-.07.121-.11.174l-.012.015-.05.062c-.017.019-.037.037-.063.057-.043.034-.094.065-.155.094-.048.023-.104.043-.172.06-.03.008-.064.014-.105.02-.038.02-.072.034-.103.042-.038.011-.077.017-.111.021-.066.008-.133.01-.199.011l-.208.002h-.179l-.057-.001-.057-.002c-.056-.003-.113-.005-.17-.005-.126-.002-.255-.009-.38-.015l-.088-.004-.094-.006-.13-.007c-.03 0-.058-.002-.087-.004l-.033-.002-.1-.004h-.017l-.11-.006-.116-.006-.142-.008-.082-.006-.048-.002-.071-.004-.015-.001-.1-.007c-.072-.003-.148-.005-.227-.005l-.12-.003-.055-.002-.055-.003c-.026 0-.051-.003-.076-.004l-.038-.003-.126-.005c-.104-.003-.207-.003-.32-.003h-.137c-.073 0-.147.004-.225.01l-.081.01-.027.002c-.037.003-.076.006-.12.007l-.094.002c-.044 0-.088.001-.132.004l-.085.004h-.03l-.064.004c-.017.001-.033.003-.05.003-.077.004-.153.006-.226.007h-.225c-.086-.005-.162-.008-.233-.009-.041 0-.082-.002-.122-.004l-.099-.005-.23-.003h-.106c-.024 0-.047-.002-.07-.003l-.04-.002-.11-.007-.04-.003-.065-.005c-.074-.008-.153-.018-.226-.04-.06-.02-.135-.047-.2-.095-.064-.048-.116-.095-.16-.144-.021-.025-.044-.052-.071-.09-.02-.025-.04-.053-.058-.082-.018-.032-.03-.067-.042-.1l-.003-.011-.008-.023c-.01-.025-.018-.05-.026-.075-.024-.072-.042-.144-.053-.214-.012-.074-.015-.15-.01-.228.005-.068.021-.141.05-.216.015-.043.03-.077.045-.107l.043-.074.011-.019.053-.091.014-.025c.013-.024.026-.048.04-.07l.022-.032c.014-.02.028-.04.04-.06l.036-.06.02-.033.025-.042c.032-.053.065-.107.094-.163.03-.062.067-.128.11-.202l.04-.06.02-.03.067-.109c.018-.028.034-.058.05-.087l.06-.104.007-.01.05-.08c.024-.035.042-.064.057-.092.018-.031.035-.065.053-.103l.03-.058.03-.058.044-.075.014-.023.042-.065.022-.032c.035-.052.068-.106.102-.16l.02-.033.055-.09c.02-.033.039-.067.06-.1l.055-.089.065-.104.025-.038.04-.062.008-.014c.016-.025.033-.052.05-.076l.036-.047c.034-.046.07-.093.102-.141l.06-.092.014-.02c.015-.025.031-.049.045-.074l.055-.102.042-.08c.017-.03.037-.061.056-.09s.038-.058.055-.088l.01-.02c.027-.048.054-.097.076-.148l.037-.085.015-.033.033-.067.023-.048c.015-.041.027-.085.034-.134.003-.025.006-.05.007-.075.004-.069.004-.138.005-.206v-.019-.218l-.002-.065-.002-.037-.003-.112c-.002-.075-.002-.15-.002-.223v-.348l-.004-.087v-.023c-.003-.017-.005-.035-.005-.053-.001-.031-.003-.061-.006-.092l-.005-.098c0-.025-.001-.058.002-.091.003-.031.007-.067.015-.102l.002-.01.012-.058.004-.044c.001-.023.003-.04.008-.056.006-.016.013-.036.026-.054.012-.018.03-.033.053-.043.018-.009.03-.014.042-.018.024-.006.05-.011.077-.015.062-.007.13-.012.206-.013h.024l.044-.001h.036l.037.003.064.003.22.003c.027 0 .053 0 .08-.002l.029-.001.125-.004h.034c.067-.002.136-.003.204-.008l.145-.008.1-.006.016-.001.095-.005.045-.001.075-.002.015-.001c.07-.004.143-.008.215-.01l.209-.001h.253c.038 0 .075-.002.113-.004l.021-.001c.022-.002.043-.003.065-.003zm-2.688 4.26h-.01l-.1.006c-.054.003-.11.009-.162.015l-.01.001c-.034.005-.074.011-.115.021-.03.007-.063.018-.103.033-.02.01-.037.018-.052.028-.017.014-.034.033-.053.057l-.004.005-.004.004c-.049.066-.087.132-.119.188-.02.037-.044.073-.066.108l-.049.077-.056.095-.052.088c-.033.056-.07.11-.107.163-.046.066-.093.134-.132.206l-.06.112-.048.091-.076.136-.033.057-.018.032c-.03.055-.063.11-.089.168l-.018.041c-.023.05-.045.098-.066.148-.034.085-.058.179-.073.278-.004.042-.005.08-.005.118 0 .037.004.073.008.109.006.035.013.063.022.088.006.012.013.023.02.033.008.01.016.018.025.025.017.012.036.023.054.032.042.016.09.028.153.037.043.005.088.009.137.011l.073.001h.486c.115 0 .219 0 .322-.003l.086-.004.136-.005c.072-.001.142-.003.212-.007l.128-.003h1.075l.15.002.19.005c.086.002.175.004.263.004h.492c.138.002.28.002.42.009l.197.007.033.001c.084.003.155.005.227.005h.943c.137 0 .279-.001.417-.014.08-.012.163-.036.254-.074.024-.01.048-.02.07-.035l.017-.017.01-.017c.006-.02.012-.042.016-.066.002-.015.002-.032 0-.05-.005-.029-.015-.056-.024-.079l-.053-.112c-.02-.04-.039-.078-.057-.118l-.027-.054-.017-.032-.018-.036-.029-.056-.03-.056c-.022-.043-.045-.086-.066-.13l-.02-.04c-.027-.055-.055-.112-.086-.165-.037-.06-.078-.124-.125-.194-.023-.034-.043-.063-.061-.092l-.04-.064-.019-.033-.031-.052-.08-.131-.057-.088c-.022-.035-.041-.065-.056-.098-.015-.034-.028-.068-.038-.1l-.019-.01c-.022-.008-.045-.014-.07-.018-.021-.002-.043-.003-.065-.003l-.07.002c-.05.001-.099.005-.147.01l-.075.011-.168.023-.013.001c-.065.008-.133.016-.2.02-.084.003-.158.006-.225.006h-.126c-.129 0-.228-.002-.321-.007-.034-.001-.067-.004-.101-.008l-.034-.003-.077-.008-.123-.018-.065-.013-.042-.007-.019-.004c-.064-.012-.13-.024-.19-.048l-.015-.005c-.032-.013-.065-.025-.095-.04-.032-.017-.06-.038-.087-.06l.013.012c-.021-.017-.045-.034-.07-.048l-.057-.03-.017-.008c-.062-.03-.11-.052-.157-.072l-.057-.023-.01.036-.01.04c-.01.03-.023.063-.039.097-.027.058-.061.11-.1.153l-.048.048-.028.029-.014.015-.029.03c-.026.028-.05.047-.074.061-.028.018-.062.032-.104.043-.036.01-.073.016-.111.02-.023.003-.053.007-.082.007l-.028-.001-.06-.006-.015-.002c-.018-.002-.037-.005-.055-.009l-.012-.002-.042-.01-.06-.025c-.063-.027-.12-.07-.174-.13l-.033-.038-.01-.014-.03-.04c-.013-.022-.03-.049-.043-.078-.019-.04-.03-.074-.038-.108-.009-.038-.011-.068-.008-.098.001-.02.005-.04.01-.058.01-.041.031-.078.052-.114.011-.02.023-.04.033-.061l.003-.012v-.008l-.004-.008c-.035-.013-.068-.018-.099-.023-.026-.003-.047-.005-.068-.005zm1.526 1.852c.018 0 .038.001.058.004.037.006.07.014.103.024.02.006.039.012.056.022.017.009.039.022.052.039.017.02.03.04.037.063.005.015.01.03.011.045.003.015.004.03.005.044.026.037.042.077.049.118.004.025.005.05.003.074-.001.018-.002.037-.007.054-.008.024-.016.042-.027.057-.013.018-.028.033-.047.046-.029.02-.064.033-.11.04-.026.005-.055.007-.084.007-.037 0-.077-.003-.122-.01-.016-.002-.03-.005-.046-.01-.026-.007-.05-.018-.071-.028-.013-.007-.025-.014-.036-.022l-.015-.01-.015-.01c-.018-.014-.032-.026-.045-.046-.03-.042-.045-.093-.043-.143.001-.04.006-.083.015-.12.013-.053.035-.098.066-.135.012-.014.026-.03.043-.043.016-.013.03-.023.045-.03l.033-.015c.028-.01.059-.015.092-.015zm-1.406.126c.032 0 .06.004.086.013.043.013.079.039.098.07.014.023.021.049.022.078.014.012.024.025.031.04.024.018.038.041.038.066 0 .016-.006.031-.016.044-.002.018-.003.028-.006.038-.009.027-.02.047-.036.065-.013.014-.03.031-.052.04l-.034.014c-.031.012-.069.018-.114.02h-.013c-.033 0-.067-.005-.101-.013-.083-.02-.144-.08-.157-.157-.016-.086.013-.184.072-.25.037-.04.09-.062.155-.067zm2.13-1.146.02.001c.037.005.082.012.128.025.035.01.076.022.112.041.023.013.046.027.066.046.017.017.033.037.046.057.021.032.046.082.05.14.001.04-.008.077-.027.112l-.003.004c.007.011.013.022.017.034.007.019.01.041.012.065.002.033 0 .064-.007.093-.007.026-.014.047-.024.064-.012.022-.027.045-.045.063-.032.03-.062.052-.092.066-.042.02-.074.032-.106.038-.043.007-.077.01-.11.01-.022 0-.042 0-.061-.004-.041-.007-.072-.015-.099-.026-.023-.01-.044-.021-.07-.04-.017-.01-.034-.024-.05-.037-.025-.02-.045-.037-.06-.054-.03-.034-.052-.073-.072-.125l-.02-.056c-.012-.036-.016-.074-.013-.119l.007-.058c.002-.022.006-.048.013-.072.006-.02.014-.042.025-.066.018-.04.044-.077.08-.111.03-.03.067-.062.117-.076.031-.009.066-.014.108-.015zm-2.063-5.914h.019l.007.001.04.002.099.005c.038.003.077.005.116.006.073.002.147.002.221.002h.036c.056 0 .115.001.173.004l.115.008h.008l.042.003.053.004.052.003.167.011.12.006.034.002.067.003c.069.004.141.006.221.007.042 0 .084.003.126.005l.093.003c.097.003.199.004.294.004h.617c.062 0 .114.003.162.02.021.008.053.02.08.038l.01.002c.03.007.055.022.076.046.018.022.034.046.052.08.019.032.03.07.033.117.002.042-.003.082-.014.118-.012.039-.032.075-.06.11-.012.014-.023.024-.035.033-.015.012-.033.018-.046.023-.019.006-.038.01-.063.015-.074.01-.153.01-.222.011h-.106l-.06-.002-.06-.003-.108-.005-.018-.001-.016-.001-.076-.004c-.073-.003-.146-.003-.22-.003-.041 0-.082.002-.122.004l-.093.004c-.116.002-.233.002-.342.002h-.21l-.096-.001-.096-.007-.06-.005-.06-.003c-.087-.004-.157-.008-.219-.014l-.052-.005c-.05-.005-.103-.01-.155-.013-.04-.002-.08-.002-.118-.002h-.045l-.044-.001-.09-.005c-.038-.002-.076-.004-.114-.004l-.225-.002h-.101c-.044 0-.079-.005-.108-.016-.025-.01-.046-.022-.068-.038-.025-.02-.043-.054-.049-.092-.006-.042-.011-.078-.014-.113-.007-.084-.01-.172.034-.244.013-.02.035-.05.067-.069.032-.02.069-.026.104-.03l.068-.008.033-.003c.038-.004.077-.006.104-.008h.043zm1.317-.66c.06 0 .11.014.146.043.012.01.024.022.033.036l.013.006c.05.026.085.072.094.127.004.022.005.045.003.073-.001.025-.004.05-.009.075-.006.03-.017.057-.035.082-.012.018-.024.031-.037.041-.015.013-.03.021-.049.03-.036.014-.062.02-.09.023h-.018c-.026 0-.051-.003-.072-.007-.02-.003-.039-.008-.057-.014l-.011-.003c-.029-.008-.056-.02-.081-.035-.031-.017-.057-.04-.074-.066-.008-.012-.015-.024-.022-.04-.017-.035-.027-.076-.031-.125-.003-.037.004-.074.02-.103.014-.026.034-.047.064-.07.026-.018.055-.033.091-.048.04-.016.076-.024.113-.025zm.756-1.008h.017c.037.003.076.007.11.02.021.007.042.015.061.027.016.01.031.021.046.034.022.02.051.05.064.089.004.014.007.03.008.046.02.017.037.036.053.058.018.027.03.062.034.1.003.028 0 .058-.009.095-.007.032-.019.064-.033.092-.018.034-.037.06-.058.08-.023.02-.049.039-.08.057-.028.017-.057.03-.084.037-.043.012-.087.018-.133.018-.034 0-.069-.004-.104-.01-.024-.004-.042-.008-.059-.013-.019-.006-.037-.014-.058-.024-.015-.006-.03-.015-.049-.026-.018-.012-.042-.027-.058-.045-.023-.025-.041-.053-.055-.083s-.029-.064-.035-.102c-.007-.04-.006-.083.001-.128.007-.04.02-.09.05-.133.047-.063.102-.111.165-.143.034-.018.07-.03.105-.038.025-.006.052-.009.083-.009l.035.001zm-1.484-.628.029.002c.042.004.08.008.118.017.04.01.077.023.11.04.029.015.059.035.094.063.02.016.046.037.068.058l.035.037.023.024c.023.024.043.048.061.073.01.013.017.025.023.037l.004.008.027.035c.022.03.038.06.05.092.024.064.029.141.013.216-.006.03-.014.066-.03.1-.012.023-.026.046-.04.068l-.024.035-.04.05-.016.02c-.021.024-.04.043-.059.06l-.008.006c-.025.022-.052.044-.08.063-.026.017-.05.03-.075.041-.028.013-.06.028-.094.037-.034.008-.071.014-.112.015h-.044c-.025 0-.047 0-.067-.002l-.015-.002c-.035-.003-.07-.006-.104-.017-.086-.027-.159-.068-.212-.117l-.053-.052-.009-.008-.041-.041-.023-.026-.007-.009c-.012-.015-.025-.03-.034-.047-.01-.019-.02-.039-.028-.06-.011-.028-.02-.06-.025-.096-.01-.066-.01-.137 0-.225l.01-.077c.006-.025.016-.048.025-.07.018-.042.043-.07.07-.1.056-.062.11-.112.163-.152.026-.02.055-.037.085-.05l.042-.018.028-.01c.025-.01.052-.014.088-.017l.046-.002z" fill="#fff" mask="url(#f)"/></g><g transform="translate(5.006)"><use fill="#fa0058" xlink:href="#b"/><path d="m11.628 9.67c.023 0 .04.002.057.004.077.012.15.035.224.072-.011.006-.024.011-.036.015.023.018.045.038.065.061.043.048.082.1.12.151l.054.07.017.022c.052.066.106.135.152.207l.038.06.052.08.054.085.066.12c.023.042.046.085.072.127l.076.114.06.103.038.071.024.043.015.026.018.031c.01.018.018.037.026.056.02.044.043.087.067.131l.03.06.01.019.015.034c.01.028.019.052.025.074.008.032.012.068.01.105-.001.025-.004.057-.012.09-.01.037-.024.068-.04.097l-.035.062c-.011.018-.022.034-.035.05-.034.041-.071.073-.115.097s-.095.034-.144.044l-.035.006-.044.008c-.024.005-.048.01-.072.013-.174.026-.364.045-.582.057h.02l-.2.01-.116.002h-.059l-.131.001h-.147l-.06.002-.165.005-.042.001-.04.001h-.032l-.02-.001h-.019l-.078-.002c-.073 0-.147.003-.22.005-.088.003-.177.003-.264.004h-.055l-.143-.002h-.049l-.109-.003c-.088-.004-.177-.01-.263-.017l-.072-.005-.325-.021c-.242-.016-.443-.025-.635-.028l-.162-.003-.1-.005-.055-.003h-.018c-.094-.005-.19-.01-.286-.01h-.01l-.13.001-.173.002h-.116l-.062-.001-.102-.003-.062-.002-.163-.002h-.132l-.246.001h-.083l-.226.001-.087.002-.089.002c-.072.002-.144.004-.216.008l-.147.009-.076.004-.269.022-.158.013-.283.026-.174.016-.146.014-.164.015-.051.005c-.086.008-.174.016-.261.02-.085.003-.169.005-.249.005h-.068l-.166-.001c-.042 0-.079.001-.116.003h-.031l-.107.004-.053.001-.054.002-.102.003h-.02c-.043 0-.084 0-.128-.007-.028-.004-.057-.008-.085-.017-.015-.005-.03-.01-.046-.018-.013-.005-.028-.013-.04-.022-.02-.017-.04-.034-.05-.058-.007-.013-.012-.027-.018-.042-.006-.018-.014-.036-.023-.055-.013-.03-.022-.056-.031-.085l-.005-.016-.005-.015c-.01-.032-.02-.065-.024-.098-.006-.059-.006-.112 0-.162.006-.053.014-.102.023-.149.01-.056.025-.109.043-.159l.01-.025.015-.042.012-.029.016-.036c.02-.05.044-.102.07-.152.021-.041.044-.085.071-.125.057-.083.113-.156.172-.223.06-.068.127-.14.204-.22l.104-.104.029-.028.02-.022c.02-.02.039-.04.06-.058.05-.045.105-.087.158-.127l.072-.054.052-.042.063-.05c.034-.026.078-.06.124-.09.052-.034.092-.058.131-.078.047-.024.098-.041.146-.057.074-.023.156-.034.244-.034.021 0 .043 0 .064.002l.102.006.202.011c.115.006.21.008.298.008h.157l.09.004.058.002c.066.003.136.004.205.004l.125-.001.166-.002h.376l.08-.001.06-.003.088-.003.161-.003h.096l.057-.001c.05 0 .1-.002.15-.005.09-.005.188-.007.31-.007.054 0 .108-.002.161-.003l.146-.002.097-.001h.047l.224-.001h.059l.142-.002h.134l.07-.001.152-.002h.102l.216.002.154.003h.154l.044.002c.082.003.167.006.25.006h.49l.079-.003.065-.003c.097-.002.19-.007.295-.012l.066-.005.117-.008h-.02l.072-.005.12-.007h-.02c.035-.002.07-.006.105-.01l.095-.008c.07-.005.14-.01.209-.013l.104-.003zm-3.961-5.775c.042 0 .089.002.144.004.093.004.175.006.251.006l.045.001h.089l.142-.002h.128c.043 0 .09.002.143.004.163.005.328.016.488.027l.037.002 1.05.073.01.001.032.002.09.007c.045.004.091.01.137.017l.12.015.136.017.039.005c.073.01.148.021.221.035.047.009.094.017.14.028l.062.014.044.01.068.013c.044.008.088.015.131.025.061.013.124.032.185.058.04.016.072.03.103.046l.046.024c.03.017.056.042.074.071.015.025.025.054.032.091l.003.022.003.021.012.057.003-.007c.048.072.074.147.082.216.006.063.004.128.001.19l-.002.046v.203c0 .072.002.144.006.216.003.04.007.084.013.133l.01.062.009.068c.006.048.01.098.014.146l.009.105c.016.164.032.337.047.528.006.086.014.173.023.26l.018.156.012.103.007.079.004.05.011.134c.006.087.01.174.014.26l.01.126.002.03c.004.04.008.08.01.119l.006.136.006.137.003.049c.001.005.002.012.001.018v.006l.001.007.001.013v.008l.002.022c.001.022.003.043.003.065l.003.147c0 .053.001.106.003.158l.002.095v.119c-.004.044-.01.086-.017.126l-.016.074-.015.056c-.015.044-.04.107-.087.152-.054.052-.125.084-.192.115l-.024.01c-.08.038-.162.066-.242.082l-.049.01c-.066.015-.133.029-.2.04-.168.03-.341.054-.517.071-.099.01-.19.016-.277.02l-.068.002c-.068.002-.136.005-.205.006l-.07.002-.197.003h-.166l-.1.001h-.067c-.167 0-.331-.007-.456-.015l-.1-.006c-.054-.004-.108-.008-.163-.01l-.15-.004-.112-.002-.127-.005-.14-.005-.135-.002c-.045 0-.09 0-.135-.002-.163-.005-.338-.014-.551-.027l-.149-.01-.099-.006c-.086-.006-.172-.008-.267-.01-.156-.004-.323-.011-.542-.024l-.063-.004c-.067-.005-.135-.009-.202-.012l-.144-.003-.107-.001c-.067-.002-.133-.003-.2-.003-.112 0-.222.003-.326.009l-.178.014-.037.003-.066.006-.047.005-.095.007h-.02c-.044.004-.089.008-.133.01l-.075.003-.048.002c-.022 0-.043.002-.065.003l-.065.003c-.041.002-.083.003-.124.003-.043 0-.085-.001-.124-.004-.037-.002-.075-.007-.112-.012-.031-.004-.055-.009-.08-.014l-.014-.002-.02-.004-.005-.001-.005-.001-.01-.003-.025-.006c-.045-.013-.08-.036-.102-.066-.012-.017-.024-.034-.031-.053l-.018-.054c-.01-.033-.018-.068-.026-.102l-.004-.02-.026-.123-.003-.015c-.008-.036-.015-.072-.02-.108-.013-.092-.02-.186-.027-.266l-.004-.087-.003-.047-.006-.14-.001-.065-.001-.056-.002-.05-.002-.072v-.166l-.001-.111c-.002-.156-.007-.321-.017-.49l-.002-.025c-.006-.077-.012-.157-.012-.235 0-.079.001-.163.005-.259.006-.166.017-.334.028-.497l.006-.092c.01-.143.019-.291.032-.436l.01-.083.005-.038.016-.142.014-.13c.004-.044.008-.083.01-.122.004-.105.006-.191.007-.27 0-.076 0-.165-.005-.254l-.001-.018c-.005-.077-.01-.158-.004-.237.007-.086.03-.17.056-.25.012-.038.025-.078.06-.103.02-.015.037-.025.056-.032.012-.005.025-.01.038-.013l.008-.003.11-.03.033-.008.09-.021c.038-.008.076-.016.114-.022.085-.014.172-.023.254-.03.057-.005.113-.007.17-.01l.101-.005h-.019l.075-.004.076-.004.159-.009h-.007.009l.032-.003.14-.009.075-.001h.108l.174-.003.14-.002.05-.001.166-.001.038-.001.05-.001c.079-.001.158-.004.237-.007l.02-.001.245-.013.012-.001h.013l.01-.001h.01l.015-.002h.013l.018-.001.017-.001.059-.002.098-.004.167-.005.168-.003.097-.002zm-.293.667h-.092l-.036.001-.072.003h-.037c-.028.002-.055.003-.083.003l-.134.005-.271.02c-.074.005-.148.01-.222.013l-.1.005-.095.004-.09.01-.014.002-.104.013c-.062.011-.136.025-.206.047-.067.024-.128.05-.187.077-.063.03-.124.067-.176.099l.015-.01-.027.019-.013.008c-.024.017-.048.035-.07.054-.018.016-.036.033-.057.056-.03.036-.055.074-.076.111-.018.04-.033.084-.045.135-.022.115-.035.23-.04.34-.002.076-.002.15 0 .22v.089l-.002.089v.044c-.002.085-.001.161 0 .233l.001.08c0 .046.001.093.004.14.008.114.011.23.015.343l.01.261.003.03.004.062.002.042v.028l.01.085.005.058.004.036.008.076c.005.036.01.073.012.11.006.08.01.146.012.207l.002.098.001.094c.004.051.01.107.025.161.003.009.007.016.011.024l.011.013.03.02c.02.009.043.016.073.023.037.006.07.011.105.014l.106.008.201.014c.23.016.466.032.699.054.107.01.216.025.321.039l.135.018c.046.006.093.01.14.015.03.003.059.005.088.009l.093.01c.04.006.082.01.124.015.12.012.243.02.362.027l.11.007c.135.009.294.019.452.025l.193.005c.088.002.18.004.27.009h.021c.142.009.29.017.434.018h.03c.066 0 .13-.002.202-.004l.09-.003.145-.004.126-.005c.031 0 .063-.001.094-.003l.153-.005.073-.003.051-.003.01-.001.029-.002.012-.001.02-.002h.01l.017-.001.018-.001.083-.008c.058-.006.12-.014.184-.025l.142-.027c.037-.008.074-.02.11-.031.066-.023.114-.046.156-.071.019-.014.033-.026.046-.038.013-.017.025-.035.037-.057.015-.033.027-.068.038-.11.005-.03.01-.054.012-.079l.008-.1c.003-.045.002-.091.002-.136v-.09c0-.032 0-.065.002-.099l.002-.119c0-.07-.001-.145-.006-.237l-.007-.22-.014-.191-.02-.192c-.01-.083-.02-.17-.025-.255-.005-.076-.006-.152-.004-.241v-.11l-.002-.117c-.004-.053-.01-.106-.017-.157l-.008-.068-.013-.11-.012-.111-.017-.116-.016-.107-.004-.039c-.007-.057-.014-.117-.03-.174l-.007-.017-.015-.043-.016-.04-.012-.026c-.02-.05-.037-.094-.048-.14l.02.01-.016-.01c-.016-.008-.035-.017-.055-.023-.023-.007-.046-.013-.07-.018-.04-.008-.084-.014-.132-.02-.153-.019-.31-.027-.458-.033l-.233-.007-.233-.007c-.052-.002-.104-.006-.156-.01l-.074-.006-.223-.015-.124-.009-.336-.023c-.142-.009-.306-.019-.467-.025l-.148-.003-.074-.001c-.074-.002-.146-.006-.226-.01l-.23-.012-.237-.007z" fill="#fff" mask="url(#g)"/></g><g transform="translate(20.393)"><use fill="#ffb600" xlink:href="#c"/><path d="m12.038 7.012c.024.001.047.011.07.021l.02.008c.023.01.046.017.07.024l.036.012.152.047.09.024.098.028c.059.017.117.038.173.058l.01.003.013.005.075.025.046.014.045.014.017.005c.013.003.026.007.04.013.009.003.018.007.026.012s.018.012.025.02c.018.018.028.036.035.058.005.016.004.033.002.043 0 .008-.002.015-.003.023l-.004.016c-.006.019-.01.032-.016.045-.005.015-.01.03-.017.044l-.016.043-.016.044-.046.138-.032.084c-.013.033-.026.062-.04.089l-.016.033-.022.043-.007.02.014.015c.01.01.018.02.026.03.018.02.034.043.048.062l.044.06.047.064.046.065c.036.051.073.104.111.155l.007.009.011.014c.026.032.048.06.067.088l.024.037.015.022.028-.024c.032-.027.065-.054.1-.078l.041-.027.026-.015.064-.045c.033-.026.063-.049.093-.07.02-.012.035-.022.054-.03.014-.007.031-.013.05-.013.016 0 .028.003.04.007.023.008.043.021.061.04.023.023.044.052.066.088.015.025.03.052.047.087l.02.041.022.047.047.093.007.015c.012.022.023.045.036.067l.016.027.035.06c.034.06.063.123.088.186.013.032.02.06.025.087.006.034.007.084-.019.125-.01.016-.02.03-.032.044-.017.019-.039.039-.066.06-.026.021-.054.043-.084.064-.033.022-.066.046-.098.069l-.061.044-.059.04-.093.065-.022.017-.092.078c-.027.024-.05.048-.072.075l-.006.008c-.002.01 0 .014.001.02l.008.053c.003.029.005.057.006.086l.003.086-.003.079c-.002.042-.005.075-.008.108l-.006.07-.004.078c0 .02 0 .042.003.068l.014.001c.039.005.079.01.118.018l.125.03c.03.01.059.02.087.032l.03.01c.026.01.051.02.075.034.025.013.047.03.065.044.024.02.044.037.061.054.034.034.055.073.06.113.013.081-.022.161-.055.23l-.059.114-.032.062c-.027.054-.053.109-.079.167-.018.043-.037.085-.06.125-.026.047-.055.095-.09.147l-.005.01c-.008.012-.016.024-.026.036-.02.022-.047.034-.077.034-.008 0-.017 0-.026-.003-.022-.005-.043-.013-.063-.021l-.022-.009-.057-.02-.025-.009c-.028-.01-.056-.02-.083-.032l-.041-.016-.043-.014c-.031-.01-.062-.016-.094-.02-.014-.002-.028-.004-.042-.004h-.006c-.018.014-.028.024-.039.034l-.032.03c-.029.024-.059.046-.085.065l-.065.045c-.03.02-.06.04-.09.063-.025.02-.055.042-.085.063-.019.014-.039.025-.058.037l-.029.018-.012.007-.075.048-.042.027-.006.003.024.038.015.025.028.05.018.035.014.023c.012.021.025.043.035.066l.025.061.014.035.003.007.046.103.008.018c.01.022.02.043.032.064l.009.015.01.02.019.037.004.016c.002.014.004.027 0 .042-.003.01-.012.025-.02.033-.013.013-.027.023-.045.03l-.026.012-.016.007-.06.025c-.24.003-.479.003-.717.014l-.214.01-.02-.041-.005-.013c-.013-.027-.026-.056-.037-.085l-.008-.022c-.008-.02-.016-.04-.022-.062-.006-.023-.01-.046-.014-.07l-.003-.019c-.005-.026-.01-.05-.019-.075l-.012.001-.016.002-.045.003c-.03.002-.062.003-.093.003h-.034c-.055 0-.104-.002-.15-.007-.072-.009-.134-.02-.189-.034l-.09-.024-.014-.004-.04-.011v.006l-.01.062c-.006.038-.015.078-.028.123-.02.069-.045.139-.077.214-.012.03-.026.065-.037.1l-.406.023-.037-.016-.083-.03c-.03-.011-.06-.02-.093-.028-.066-.017-.123-.034-.175-.054-.026-.01-.051-.018-.077-.026-.031-.01-.063-.021-.094-.033l-.058-.022c-.042-.015-.087-.03-.127-.052l-.02-.012c-.02-.013-.033-.025-.044-.042-.01-.015-.014-.04-.008-.064.002-.014.008-.027.014-.04l.037-.074c.03-.052.058-.104.084-.156l.064-.12.02-.036.042-.078.017-.028.014-.021-.014-.012-.057-.057c-.022-.026-.042-.048-.064-.068l-.08-.067c-.022-.016-.043-.033-.064-.051-.054-.047-.097-.093-.133-.143-.017-.024-.033-.05-.048-.08l-.009-.017-.014-.02-.038.02c-.029.016-.054.03-.08.041l-.077.036-.026.013c-.022.012-.045.023-.069.033-.036.014-.064.022-.092.028-.014.003-.031.006-.05.006-.022 0-.04-.005-.055-.015-.021-.015-.036-.03-.048-.047l-.016-.027c-.01-.018-.019-.038-.027-.057l-.011-.025-.043-.092-.028-.052-.017-.03-.05-.094c-.036-.071-.064-.13-.086-.183-.012-.03-.024-.062-.032-.094l-.017-.079-.004-.018c-.008-.035-.016-.066-.026-.094-.008-.026-.018-.05-.029-.078-.009-.021-.018-.042-.03-.062l-.017-.042c-.006-.018-.005-.046.007-.063l.014-.019.013-.01.013-.01.014-.006c.047-.022.098-.038.142-.05l.045-.01.032-.008.076-.022.041-.012c.031-.01.064-.018.094-.03l.015-.008.005-.022c.006-.059.013-.127.016-.196l.003-.087c0-.037.001-.074.004-.111l.003-.054c.002-.046.005-.093.01-.14.005-.036.01-.072.018-.107l.007-.033.008-.034-.054-.015-.07-.012c-.034-.005-.06-.009-.085-.016-.023-.007-.045-.017-.066-.026l-.011-.005c-.027-.01-.044-.018-.063-.028-.017-.009-.035-.018-.048-.034-.013-.014-.023-.032-.026-.048-.004-.014-.007-.031-.006-.047 0-.025.004-.049.01-.072l.007-.028.004-.016.01-.041.013-.05c.007-.026.016-.06.03-.092l.01-.026.022-.057c.01-.024.018-.049.026-.074.012-.035.025-.072.04-.107.02-.052.046-.103.07-.153l.024-.049.007-.016c.021-.044.042-.089.073-.128.017-.022.032-.04.053-.054.024-.017.051-.025.08-.025h.015c.04.005.071.011.1.019.056.015.114.033.172.052.035.012.064.021.089.037l.01.007c.025-.025.053-.061.087-.093l.015-.015c.037-.035.074-.07.115-.098l.02-.013c.037-.025.076-.05.116-.071l.027-.013c.03-.014.06-.03.087-.048l.024-.025-.002-.018c-.006-.038-.014-.075-.022-.113l-.003-.012c-.005-.023-.01-.044-.012-.068l-.002-.026-.003-.028c-.006-.044-.012-.087-.02-.13-.01-.056-.017-.112-.022-.154-.004-.029-.01-.057-.015-.085l-.002-.012-.007-.046c-.005-.036-.008-.07.011-.101.013-.021.03-.037.05-.048l.019-.01c.02-.01.036-.017.05-.022.031-.01.061-.018.095-.026l.093-.019.047-.009.046-.01.158-.04.035-.008.023-.006c.055-.014.112-.028.169-.04l.069-.011.025-.005.106-.014.022-.001c.025-.003.05-.005.075-.005.03 0 .06.002.09.014.024.01.042.021.056.036.009.01.016.021.024.034.02.033.03.073.039.109.008.037.015.073.02.111l.009.087.01.106.014.077.004.021.003.022.003.022h.061c.029-.013.058-.024.088-.032.048-.013.095-.017.136-.02.072-.005.159-.01.247-.02.002 0 .005 0 .01-.004.01-.016.019-.033.027-.05l.01-.019c.012-.023.024-.048.034-.072.012-.032.022-.065.031-.097l.014-.044.013-.041.027-.088.007-.025.013-.048.002-.01.008-.027c.004-.011.008-.022.014-.032l.014-.017c.011-.013.032-.02.054-.02zm-6.168-3.362h.625l.027.001.048.004c.02.003.04.01.062.023.045.027.065.081.076.12.017.063.023.13.016.202l-.016.137-.016.11-.018.095-.003.014-.012.068-.009.047-.007.038-.012.066c-.002.016-.003.034-.001.056l.014.007c.02.009.042.015.063.022.068.021.145.046.215.082.024.014.048.03.071.045l.022.015.095.062c.015.01.031.019.046.03l.01.006c.01.006.02.013.03.022l.01.008c.03.023.054.046.078.068.018.018.039.036.063.055l.037.029.024.018.038.028.037.032.007.006.012.007.004.002c.024-.011.04-.021.06-.036l.023-.02.054-.042.042-.03.04-.028c.002-.003.006-.006.013-.01.028-.023.055-.049.081-.074l.01-.009c.03-.028.059-.057.087-.088.028-.029.059-.058.098-.092l.044-.04.048-.044.01-.009.041-.033c.018-.013.038-.026.06-.031.01-.003.021-.005.033-.005h.009c.016.002.026.005.04.012.01.005.02.01.032.02.016.011.03.024.042.038l.063.068.022.023.039.04.048.053.029.032.05.057.023.029c.048.057.094.117.14.177l.021.026.026.03.024.032c.009.01.014.018.017.025.005.01.01.02.013.032.002.008.004.025.003.034-.003.025-.007.046-.018.067-.018.034-.039.063-.055.085-.025.032-.049.063-.076.092l-.031.034-.037.04c-.019.02-.036.041-.054.062-.03.035-.06.07-.094.103l-.03.03c-.036.034-.072.069-.104.107-.031.041-.055.079-.074.115l.014.013.015.014.03.034c.053.065.09.138.117.195l.03.062c.025.051.051.104.072.158.014.04.027.077.037.115l.01.04.02.067c.01.038.02.077.028.117.006.026.014.061.027.095l.002.005.01.006c.023.008.047.013.071.018l.024.006.09.021.076.023.013.005c.03.01.062.018.097.027l.073.017c.04.009.08.018.12.03.073.021.135.045.19.074l.023.012.004.002.005.003c.013.009.022.014.028.022.014.016.03.038.036.063.005.023.007.044.007.065-.002.038-.01.077-.018.115l-.003.013-.01.054-.01.048-.023.099c-.015.056-.034.13-.06.201-.026.077-.051.145-.079.207l.005-.01-.016.04c-.008.019-.018.033-.028.041-.013.012-.034.027-.06.027h-.007l-.013-.002-.013-.002-.04-.002c-.031 0-.061.003-.088.006l-.1.016-.033.006-.07.013c-.038.006-.077.01-.114.013l-.035.002c-.019.001-.037.002-.058.005l-.023.003-.008.001-.004.022-.01.035-.018.044-.014.038c-.016.044-.035.088-.053.131l-.006.014-.003.007-.001.002-.003.006c-.031.075-.06.134-.091.186-.029.049-.06.1-.1.162-.033.052-.068.103-.103.154-.017.027-.036.052-.054.078l-.046.057-.02.025-.01.011c.015.027.033.047.054.068l.017.018c.017.018.035.037.054.053l.029.02c.027.019.056.039.08.063l.038.041.037.042c.015.015.031.03.047.043l.037.035.025.025.05.047.015.01.028.021.025.02.013.01c.007.005.015.01.021.017l.018.021c.009.013.011.025.013.04.002.02-.006.039-.023.06-.011.013-.025.026-.04.039-.025.02-.048.044-.07.067l-.01.01-.064.067c-.027.028-.053.06-.079.09l-.058.067-.02.022-.049.055-.025.03c-.015.018-.032.038-.05.056-.02.02-.044.04-.074.065-.016.012-.033.026-.054.032-.01.003-.018.004-.027.004-.013 0-.026-.003-.04-.01-.016-.006-.03-.018-.043-.028-.038-.028-.073-.048-.112-.07l-.117-.064c-.04-.022-.08-.046-.12-.071-.024-.017-.048-.036-.07-.055l-.027-.02c-.06-.045-.123-.082-.19-.112-.006-.002-.012-.004-.018-.004l-.024.02c-.026.025-.05.046-.074.064-.03.021-.06.04-.088.057-.069.041-.134.076-.2.105-.065.029-.133.056-.201.08-.035.012-.072.022-.107.032l-.042.011-.05.013-.001.028-.001.195v.153l-.01.118-.005.047c-.006.063-.012.129-.027.192l-.015.054c-.01.028-.018.053-.034.072-.015.019-.037.028-.063.028-.013 0-.026-.002-.039-.006l-.012-.004c-.01-.004-.022-.008-.033-.01l-.015-.003c-.076-.01-.135-.016-.191-.02-.058-.004-.119-.009-.178-.016l-.017-.003-.071-.008-.09-.007-.077-.007-.108-.01-.048-.006-.012-.002c-.01 0-.02-.001-.03-.004-.043-.013-.059-.059-.058-.098l.001-.034v-.013c.004-.073.005-.15.006-.226v-.361-.072l-.006-.03c-.003-.006-.006-.006-.01-.007l-.009-.002-.016-.004c-.012-.003-.025-.009-.039-.015l-.052-.022-.013-.005-.011-.005-.02-.008-.068-.028c-.032-.014-.062-.032-.089-.048-.025-.015-.049-.03-.073-.047l-.017-.011-.091-.062c-.053-.036-.115-.08-.174-.127-.029-.022-.056-.044-.083-.068l-.005-.003-.003-.004-.005.009c-.014.027-.033.053-.051.076-.021.028-.044.056-.075.092-.024.027-.05.056-.076.081-.055.053-.11.104-.165.15-.065.056-.12.1-.174.135l-.017.011c-.022.015-.045.031-.07.044-.022.012-.051.028-.081.028s-.06-.014-.086-.04l-.104-.104-.098-.098-.035-.041c-.029-.036-.051-.068-.07-.1l-.021-.038c-.027-.046-.055-.095-.087-.139-.029-.036-.06-.073-.098-.112l-.03-.034-.009-.011c-.007-.009-.015-.018-.02-.028-.009-.014-.015-.028-.02-.042l-.003-.012-.004-.012c-.01-.021-.011-.04-.006-.057.005-.016.013-.03.028-.045l.012-.014.065-.068c.047-.046.088-.087.124-.126.035-.038.07-.078.104-.119.032-.04.065-.072.1-.099l.006-.006c0-.012-.003-.018-.005-.023-.017-.036-.028-.066-.035-.095-.008-.035-.017-.069-.028-.102-.021-.069-.044-.138-.068-.207-.013-.04-.029-.08-.044-.119-.01-.023-.018-.046-.027-.07-.021-.056-.037-.12-.048-.2l-.01-.055c-.003-.013-.008-.026-.013-.04l-.01-.015-.015-.005-.01-.003-.018-.007-.017-.006-.036-.012-.03-.007-.012-.002c-.012 0-.024-.002-.036-.004l-.034-.006-.04-.007-.037-.006-.045-.004h-.026c-.012 0-.024 0-.035-.002-.024-.002-.047-.004-.07-.01-.017-.003-.034-.008-.051-.013l-.05-.016-.045-.014-.024-.007c-.022-.007-.044-.014-.067-.017l-.046-.008c-.012-.003-.025-.005-.037-.012-.014-.009-.025-.019-.033-.033-.014-.024-.012-.054-.01-.081l.003-.054c.003-.068.004-.14.005-.22l.001-.269v-.172c0-.042.002-.08.004-.113.002-.027.005-.056.015-.082.008-.02.022-.046.048-.061.015-.01.032-.016.05-.021l.03-.007c.008 0 .015-.002.021-.004l.023-.005.022-.005c.035-.008.071-.013.109-.016.058-.005.117-.005.175-.005h.041c.013 0 .026 0 .039.002l.016.002.039.005.021.001.033.003.016.002.016.003.02.003.034.003.008-.036.003-.016c.006-.024.012-.049.02-.072l.06-.192.037-.109.032-.095c.012-.038.026-.076.044-.116.01-.026.024-.05.038-.075l.01-.02.048-.082.047-.077-.015-.016c-.016-.018-.029-.035-.04-.052l-.019-.028c-.01-.017-.021-.033-.033-.05l-.12-.17c-.039-.059-.08-.12-.114-.188l-.01-.02c-.025-.049-.05-.099-.083-.143l-.006-.008c-.016-.02-.033-.042-.048-.065-.015-.022-.027-.04-.038-.06l-.007-.012-.013-.023c-.009-.013-.015-.023-.018-.034-.006-.023-.004-.044.007-.063.01-.022.03-.039.048-.054l.039-.03-.006.004.01-.007.088-.066.01-.008.09-.059.025-.016.06-.04.051-.034.12-.08.06-.04c.039-.027.08-.055.12-.08.02-.013.04-.025.064-.033.016-.006.034-.01.05-.01.024 0 .044.007.062.019.033.024.06.049.083.075l.065.075.065.075c.037.044.072.092.106.137l.03.041.016.02.043.055.037.048.021.025.04-.035.011-.009c.02-.016.041-.032.064-.045.018-.016.037-.031.057-.045.024-.016.05-.03.076-.044l.03-.017.101-.055.02-.01.074-.038c.035-.017.07-.03.108-.044l.117-.044.063-.025.104-.036.019-.006.032-.01.025-.007c.01-.003.018-.005.027-.01.01-.07.011-.135.012-.195.002-.063.003-.135-.001-.205-.004-.058-.006-.12-.008-.19 0-.03 0-.06.003-.091l.006-.062.003-.03c.004-.036.007-.072.009-.109v-.01c0-.014.002-.029.005-.043.006-.027.02-.048.043-.064.03-.021.07-.034.111-.035.052-.003.104-.003.148-.003h.047zm5.588 5.009h-.014c-.028 0-.057.002-.09.006h-.01c-.027.004-.055.007-.083.008h-.02c-.044 0-.09-.004-.135-.014l-.01.002c-.105.016-.211.045-.326.09-.154.067-.291.146-.41.235-.029.023-.053.042-.074.065-.02.02-.038.04-.061.07-.02.028-.038.057-.056.088-.015.028-.03.057-.047.096-.02.05-.043.105-.062.16-.01.029-.017.058-.024.084-.008.03-.014.06-.018.084l-.015.172-.007.09v.014c-.001.02-.003.04-.001.061l.005.045c.01.06.023.12.04.18l.007.029c.006.022.012.045.02.066.006.024.015.047.027.076.009.02.018.042.03.062l.025.044.01.018.009.014c.017.03.036.062.057.092.03.034.063.067.095.098l.038.037.052.05.06.05c.05.037.093.066.134.09.045.028.094.05.131.066.03.013.061.024.092.035l.018.006c.028.01.057.02.086.028.054.014.11.022.164.03l.053.008.081.008c.016.002.033.002.05.002h.046c.066-.002.12-.005.17-.01.054-.009.107-.022.162-.036.032-.009.06-.017.086-.027.022-.007.042-.016.063-.024l.005-.002h-.002c.034-.015.063-.028.092-.043.03-.015.06-.033.086-.049.046-.028.09-.06.133-.092l.016-.011c.034-.027.065-.057.094-.084l.087-.087.029-.03c.045-.048.091-.097.133-.149l.039-.063c.012-.023.024-.045.035-.069.022-.057.04-.111.056-.166.015-.051.023-.104.031-.163.005-.037.009-.07.007-.103l-.003-.038-.003-.038-.012-.123c-.005-.025-.01-.053-.018-.083-.006-.023-.015-.046-.023-.068l-.044-.093-.005-.01-.033-.07-.018-.04c-.038-.08-.074-.144-.114-.2-.043-.051-.093-.101-.153-.153-.042-.03-.087-.055-.13-.078l-.028-.016-.034-.02-.076-.037-.14-.067-.059-.026-.07-.031c-.021-.009-.045-.019-.07-.024l-.09-.016-.007-.001-.044-.005h-.03zm-5.488-2.718-.036.004c-.071.01-.142.029-.21.046l-.018.005c-.041.01-.082.02-.122.033-.034.01-.068.021-.108.037l-.08.04c-.029.016-.056.033-.088.053-.043.027-.087.058-.14.098-.049.04-.093.084-.131.123-.042.041-.08.085-.12.132-.023.03-.047.062-.07.096-.022.031-.043.066-.067.112-.047.088-.083.162-.114.234l-.001.001c-.04.104-.06.21-.076.31-.009.09-.014.18-.015.265 0 .048 0 .096.002.149.001.041.006.083.01.122.015.102.033.19.056.268.004.016.01.03.015.046l.008.021.015.042.008.022.046.115c.015.035.034.07.06.113.021.037.042.069.063.098.042.05.094.094.143.134.028.019.057.037.087.053l.066.04.023.013.086.052c.026.015.052.026.082.04.043.015.085.028.127.037.044.01.09.018.136.026.107.012.215.016.308.018l.15.002h.096l.06-.003c.106-.016.191-.036.267-.065.098-.044.183-.09.26-.141l.027-.018c.077-.052.157-.105.233-.162.035-.027.073-.057.107-.093l.014-.014.042-.044.049-.06c.036-.047.07-.098.104-.153.039-.063.066-.112.088-.16.017-.042.03-.083.037-.122.009-.044.017-.089.024-.138l.003-.024.011-.094c.005-.049.008-.097.01-.137.005-.094.004-.17-.003-.239-.017-.11-.034-.226-.072-.334l-.002-.004-.002-.005-.004-.01-.001-.003-.019-.039-.02-.043-.046-.1c-.024-.054-.048-.106-.082-.154l-.056-.062-.031-.037-.021-.026c-.033-.038-.07-.076-.11-.113-.026-.022-.05-.046-.074-.069l-.05-.049c-.04-.037-.076-.068-.11-.095-.082-.061-.158-.107-.23-.142-.026-.009-.054-.012-.08-.016-.038-.004-.067-.006-.094-.006h-.024l-.066.003c-.01 0-.022.002-.032.004l-.013.001-.055.007-.029.002h-.03c-.06 0-.125-.01-.19-.03.006-.005.013-.01.02-.012zm5.91-2.975.024.003.023.008c.032.014.042.048.05.079l.005.014c.007.023.013.047.017.073l.01.046c.009.044.018.09.014.135-.003.033-.009.067-.015.1l-.011.063c.03-.006.059-.013.086-.015h.01c.034 0 .066.013.1.029l.026.011.02.01.018.006.025-.017.01-.007.029-.021c.022-.018.043-.037.063-.056l.034-.034.02-.021.026-.036.007-.009.036-.046.006-.008.015-.017c.012-.015.026-.025.045-.032.005-.002.01-.002.017-.002.008 0 .017 0 .025.002.014.003.028.016.036.023l.02.018.038.03.013.01.035.026.004.003.004.003.052.04.02.018.02.016c.024.017.049.035.074.05l.017.012.055.035c.036.019.067.04.096.063.023.017.048.039.063.065.027.047.012.101-.011.136l-.03.043-.023.034c-.037.054-.075.11-.117.162l-.06.071-.051.06c-.02.024-.041.046-.062.068l-.032.037.02.043.01.018.01.02.024.062.02.06c.005.015.01.03.013.047l.003.013.01.049c.01-.003.022-.005.033-.006l.045-.01c.02-.004.042-.008.063-.01.001-.002.01-.004.02-.007l.036-.008.073-.008.055-.001h.021l.016-.005c.007-.002.014-.002.02-.002.026 0 .05.01.067.027.026.025.029.064.032.098l.001.017.006.041.003.016.01.065.003.063v.05c0 .015.002.03.004.044l.01.052c.005.03.011.062.014.094l.001.028.004.045.006.071.002.071c0 .028 0 .051-.012.073-.015.029-.046.052-.08.06l-.054.007h-.015l-.04.007c-.04.007-.079.017-.117.026-.033.009-.065.018-.096.03l-.06.031-.043.023c.004.023.005.043.005.06-.001.036-.008.071-.022.11-.016.043-.034.083-.054.118l-.012.022-.013.022.007.01c.013.014.028.026.043.038l.011.01.021.013c.01.006.02.012.029.02.02.015.039.034.057.057l.005.005.006.009c.008.01.02.023.033.034.01.008.021.02.031.032.008.01.011.012.016.016.013.012.02.026.026.04.004.012.007.025.007.043 0 .046-.029.08-.057.114l-.017.02-.013.017-.061.074-.008.009c-.02.025-.044.048-.067.07l-.035.035-.015.016-.036.037c-.018.018-.037.035-.056.05-.022.019-.045.034-.068.05l-.039.024.005-.003-.012.01-.015.01-.011.009-.022.013c-.01.004-.019.008-.03.01l-.032.003c-.024 0-.046-.007-.064-.02l-.037-.029-.008-.006-.028-.02c-.017-.011-.034-.023-.05-.037l-.041-.038-.035-.038-.033-.045-.016-.023c-.007-.008-.012-.017-.017-.025l-.023.005c-.013.002-.026.004-.039.004l-.025.001c-.018.004-.036.007-.054.008-.017.002-.033.002-.05.002h-.016l.003.025.005.044.002.018c.004.03.008.059.01.088.002.025.003.051.003.076v.042c0 .014-.002.028-.004.042l-.004.013-.007.035-.005.025-.001.014c0 .014-.004.028-.007.041-.006.032-.024.066-.047.076-.016.008-.031.011-.05.012h-.06l-.026-.004-.014-.003c-.024-.002-.049-.002-.074-.003h-.06l-.019.001-.041.01-.077.014c-.042.005-.085.005-.123.005h-.22c-.018 0-.04-.001-.061-.013-.016-.008-.029-.02-.036-.033-.014-.025-.014-.053-.014-.081v-.336c0-.026 0-.053.004-.085.001-.02.004-.038.007-.057-.019-.006-.033-.017-.051-.03-.024-.017-.04-.031-.056-.046-.014-.012-.027-.025-.042-.036l-.028-.02-.015-.011c-.013.016-.027.033-.045.051l-.035.037-.027.027-.027.028-.009.01c-.01.012-.022.025-.034.036l-.021.021-.022.022c-.029.029-.054.053-.08.075l-.015.011-.039.032c-.003.003-.01.01-.02.016-.014.012-.031.023-.052.027l-.028.004c-.011 0-.026-.005-.04-.013-.01-.006-.019-.013-.03-.022l-.032-.022-.019-.012c-.02-.014-.037-.03-.055-.044l-.015-.012-.043-.037-.013-.011-.04-.035-.023-.022-.028-.03-.02-.02-.032-.033-.017-.018-.05-.054c-.012-.013-.022-.028-.033-.042l-.008-.011-.016-.016-.015-.013c-.014-.01-.025-.019-.032-.031-.01-.015-.014-.032-.014-.049 0-.028.019-.056.033-.073l.033-.044.034-.044.029-.04c.026-.036.053-.074.083-.108.017-.02.033-.037.05-.052l.018-.014-.004-.006-.015-.025-.01-.016c-.01-.024-.018-.045-.023-.065-.004-.016-.006-.032-.007-.048l-.002-.015c-.004-.03-.008-.051-.015-.072l-.012.003c-.01.002-.023.003-.036.003-.009 0-.018 0-.027-.003l-.02-.004-.037-.008c-.034-.005-.07-.01-.107-.024-.03-.01-.061-.02-.094-.026-.02-.002-.041-.005-.061-.013-.032-.012-.054-.036-.068-.074-.007-.018-.009-.036-.01-.053-.004-.025-.005-.052-.005-.081 0-.016.002-.03.004-.046l.003-.034c.003-.044.003-.09.003-.133v-.033l.003-.052.002-.023c.002-.015.003-.03.003-.047 0-.015.003-.03.005-.045l.002-.016.004-.036.004-.02.002-.011.004-.052.005-.038.003-.015c0-.018.001-.029.004-.038.008-.028.03-.05.058-.056.01-.003.023-.004.036-.004.01 0 .022.002.033.004l.01.002.036.004.017.002c.017.002.034.004.051.004.026.002.053.005.081.01l.011.001.056.01c.007 0 .015.003.023.004l.027.006h.005l.004.001c0-.023.001-.038.003-.053.003-.035.014-.07.034-.115.012-.025.027-.049.042-.073l.004-.007.004-.006-.004-.006-.004-.004-.007-.008-.014-.02h-.002v-.002h-.002l-.05-.072-.045-.066-.035-.04c-.015-.017-.028-.035-.042-.054-.012-.014-.023-.026-.035-.036-.016-.012-.027-.02-.035-.029l-.014-.017c-.012-.014-.025-.03-.036-.047-.01-.018-.017-.036-.024-.055-.004-.008-.008-.016-.01-.024-.007-.029-.002-.057.015-.087.015-.027.037-.052.054-.07l.03-.033.075-.08c.029-.029.061-.055.092-.08l.04-.032c.032-.027.068-.053.101-.077l.007-.004.01-.008c.03-.022.06-.046.086-.072l.012-.01c.02-.02.04-.04.064-.057.016-.012.035-.024.057-.024.007 0 .013 0 .02.003.024.008.044.024.064.04.037.029.057.063.077.096l.025.041.016.018.015.016.009.01.022.026c.023.026.042.047.062.064l.017.015.024.021.023.023c.01.01.015.017.018.025l.005.011.004.011.006.03-.001-.007v.003l.003.01.003.013.015-.022c.015-.022.034-.04.06-.06.016-.012.034-.023.053-.032l.05-.022.016-.005c.02-.01.042-.017.064-.025l.01-.004c0-.02-.002-.041-.004-.06-.008-.053-.018-.098-.029-.14l-.01-.03c-.006-.02-.008-.034-.01-.047-.003-.021-.004-.042-.004-.058v-.07c0-.015.003-.042.021-.059.013-.012.027-.02.048-.026l.036-.01.045-.009.046-.008c.03-.004.06-.01.09-.017l.045-.009.045-.008.032-.005.068-.01.083-.01.014-.001c.027-.004.054-.009.082-.01.026-.003.054-.004.09-.004h.065zm-.505 1.45-.037.008-.015.004c-.042.01-.085.02-.126.033l-.045.022c-.028.015-.056.031-.082.05-.03.025-.059.053-.084.084-.019.026-.036.058-.055.099-.013.034-.024.065-.031.095-.008.034-.015.061-.02.09-.004.038-.004.076-.004.113v.044l.002.024.002.023.002.024c.005.03.011.065.021.1.01.031.021.065.036.102l.02.042.022.033.035.048.015.02c.019.024.036.045.056.062.036.026.072.047.108.064h.002l.005.002.026.012c.023.01.039.016.055.02l.057.011.07.01.014.002.015.003.023.004c.024.003.046.004.066.004.013 0 .027 0 .04-.002.05-.008.104-.022.167-.046.04-.018.074-.037.103-.059.02-.016.039-.035.052-.05l.047-.052c.013-.019.025-.038.036-.058l.02-.031.012-.02c.018-.027.037-.057.052-.087.014-.037.024-.069.03-.098.007-.029.012-.06.018-.1.003-.025.005-.053.006-.087v-.053l-.002-.04c-.003-.02-.01-.04-.015-.058l-.007-.02-.006-.022-.006-.02-.011-.031-.005-.012-.009-.021-.028-.061c-.01-.02-.02-.041-.035-.062-.007-.008-.015-.016-.024-.023-.018-.013-.036-.024-.055-.035l-.038-.024-.02-.014-.033-.022c-.015-.01-.032-.017-.046-.023l-.02-.008.007.014-.016-.002-.046-.008c-.035-.003-.07-.005-.107-.006h-.066c-.02-.001-.038-.003-.058-.006-.028-.004-.059-.006-.09-.006z" fill="#fff" mask="url(#h)"/></g><g transform="translate(23.73 14.646)"><use fill="#00aea4" xlink:href="#d"/><path d="m12.705 6.306c.028.006.054.017.077.026l.06.028.061.03.034.016.037.018c.036.017.067.033.098.05.041.024.083.053.137.092l.135.106.132.113c.089.077.174.151.25.234.036.041.07.085.101.125l.108.144.028.04.028.04.006.009.034.049c.032.046.063.093.093.14.07.109.123.2.169.286.022.044.05.096.073.15l.032.073.033.082.01.024.007.018.03.08c.015.042.03.085.043.129l.032.11.03.112.002.011c.008.03.015.058.02.087l.007.034.005.036.002.015c.008.057.016.114.021.172l.006.078v.03l-.001.047-.002.063-.001.06-.002.04-.004.084-.005.074-.005.054c-.003.034-.006.069-.011.103-.006.038-.014.076-.023.117l-.01.049-.019.08-.01.034-.011.034c-.025.069-.044.12-.063.167l-.01.022-.01.023-.012.028c-.016.038-.026.061-.039.083l-.044.076-.024.037-.025.038-.028.039-.023.05c-.018.035-.035.07-.051.106-.015.032-.03.065-.05.097l-.024.038-.027.039-.008.01-.062.083-.06.074-.018.022c-.019.024-.038.049-.055.074l-.02.027-.018.028-.024.035-.029.043-.035.051c-.022.032-.046.063-.07.092-.057.072-.119.14-.171.198-.049.053-.1.105-.153.154l-.08.071c-.03.023-.058.047-.085.071l-.05.046-.086.083-.038.036-.096.083-.1.075-.017.01-.022.016-.157.106-.062.042-.012.008-.118.078-.094.057-.056.034-.045.028-.097.061-.031.02-.016.01-.057.037c-.112.07-.238.137-.396.212l-.03.014-.03.015-.025.012c-.04.02-.08.04-.12.058-.072.032-.143.063-.215.093-.075.032-.155.06-.237.083l-.099.025-.108.023-.026.005-.077.015-.08.014-.011.002-.068.013-.072.014c-.057.01-.107.02-.156.027l-.137.02-.097.016c-.096.014-.175.024-.248.032l-.02.002-.112.011-.118.004h-.015l-.051-.002c-.056-.001-.111-.003-.167-.007l-.091-.006-.092-.009-.036-.003c-.08-.008-.146-.016-.204-.026-.03-.005-.06-.009-.091-.012-.038-.004-.074-.008-.11-.014l-.03-.006-.03-.006-.04-.008-.055-.01-.113-.019-.02-.003c-.065-.011-.133-.023-.198-.042l-.08-.025-.08-.027-.034-.012-.033-.012-.224-.075-.112-.04-.048-.018-.056-.021-.08-.034-.08-.036-.104-.048-.075-.034c-.055-.024-.123-.055-.185-.087-.074-.04-.15-.081-.227-.125-.102-.058-.2-.124-.29-.188l-.129-.094-.03-.023c-.061-.045-.124-.092-.18-.146l-.033-.033-.093-.093-.06-.058-.106-.097-.007-.007c-.026-.024-.053-.05-.078-.077l-.077-.094-.074-.099-.01-.013c-.05-.065-.095-.125-.135-.187l-.03-.046-.012-.018-.018-.028-.03-.048-.008-.011-.018-.03-.04-.063-.02-.032-.053-.083-.024-.037c-.03-.048-.062-.097-.09-.148l-.05-.097-.05-.1-.057-.12-.053-.117c-.07-.159-.123-.323-.166-.463l-.012-.045-.011-.045-.006-.026-.012-.05-.011-.05-.004-.02-.02-.102-.017-.1-.009-.059c-.012-.076-.023-.154-.032-.231l-.001-.01-.01-.11-.005-.08-.002-.028-.003-.055-.01-.135c-.004-.04-.006-.083-.006-.128v-.05l.001-.048.001-.062v-.03l.004-.225.004-.092c.003-.053.01-.107.019-.162l.01-.082.012-.104.018-.155.017-.104.02-.102.013-.064c.015-.076.034-.164.058-.253l.044-.147.017-.059.026-.089c.02-.071.042-.145.069-.216.03-.08.063-.165.101-.245.042-.088.082-.164.123-.233.021-.036.043-.073.066-.108l.046-.064.013-.017.013-.017.049-.07.064-.089.04-.068c.05-.077.098-.146.145-.213.058-.08.112-.148.166-.208l.165-.175.17-.168.032-.033c.066-.064.135-.124.195-.175l.043-.034.044-.033.026-.019.036-.024.036-.024.005-.003.024-.015c.076-.05.155-.097.234-.145l.1-.06.101-.063.07-.046.074-.047.079-.047.033-.02c.058-.032.13-.073.2-.11.076-.04.155-.078.234-.11l.046-.018.046-.017.065-.024.098-.037.18-.067.181-.055.016-.004c.157-.038.334-.08.506-.118.077-.016.154-.029.246-.043l.134-.017.132-.007h.05c.086.001.172.01.258.022l.127.019.045.007.066.01.065.014.017.005.045.013.052.02c.038.016.077.033.117.053l.038.02.041.03.005.004.004.006-.002-.004.04.035.039.04c.024.026.053.061.073.102.033.067.055.141.068.227.006.039.01.08.012.13.002.044 0 .081-.005.117-.005.033-.01.071-.019.109-.007.03-.019.065-.036.104l-.03.06-.033.054-.041.059-.019.026c-.025.035-.052.07-.08.103l-.015.018-.015.019-.01.012-.028.031c-.035.046-.06.097-.083.15-.008.018-.016.036-.022.054-.004.016-.008.032-.01.048-.007.047-.008.096-.003.15l.007.031.008.015.018.018.018.016.006-.004.017-.01.025-.016.029-.019.03-.017.042-.024.043-.024.066-.035.147-.07.04-.02.025-.013.011-.006.05-.026.057-.031.056-.032.016-.01.038-.02c.06-.035.118-.068.178-.099l.063-.03.067-.03.05-.021.043-.02.049-.02c.087-.039.176-.078.262-.12l.188-.095c.058-.028.114-.055.172-.08.068-.028.137-.056.206-.082l.054-.02.053-.019.008-.003.254-.092.19-.07.069-.027.025-.01c.085-.032.181-.07.277-.098l.085-.022.086-.019c.07-.015.13-.027.19-.037.059-.01.122-.022.187-.03h.007l.004-.001h.004l.085-.008.095-.003h.089c.044 0 .078.003.11.01.034.008.06.015.089.028.01.004.019.008.028.014l.006.004.006.005.006.004.008.006.04.03.021.023.02.024.014.015c.02.024.044.053.063.085.015.025.026.052.038.082s.015.063.018.099c.003.038.002.071-.002.104l-.02.094c-.018.064-.041.125-.07.18l-.026.046-.025.036-.038.052-.009.011-.01.014-.042.054-.043.052-.007.008-.033.04-.014.018c-.035.044-.075.095-.119.14l-.06.058-.059.053-.02.017c-.025.023-.052.044-.078.065l-.036.03-.036.03-.04.036-.01.01-.022.019-.074.063-.076.06-.083.064-.103.075-.04.028c-.043.032-.09.068-.133.107l-.031.028-.03.029-.008.007-.045.043-.126.112-.016.014-.02.018-.018.015-.009.005c-.9.504-2.672 1.38-3.883 1.915.142.036.95-.222 1.995-.73.449-.21 1.392-.667 1.896-1.184l.016.004zm-3.565 4.271h-.02l-.02.002-.022.002-.029.002c0 .004-.002.007-.004.01l-.013.014-.014.008-.052.023-.04.021-.011.006-.037.02-.04.026-.006.004-.01.013c-.004.005-.01.008-.017.01l-.033.03c-.019.017-.04.039-.06.062-.024.03-.045.065-.063.102-.029.07-.05.149-.067.248-.005.032-.006.064-.004.096l.003.059.004.059.002.01c.003.033.007.067.018.097.008.016.018.033.03.05.046.058.101.105.154.148.026.02.052.038.08.055.026.017.055.03.077.04.02.008.037.015.056.02l.045.008.067.007.064.003.065-.001.058-.006h.011c.04-.006.082-.01.12-.025.023-.01.042-.02.06-.031.042-.033.078-.063.11-.092l.043-.044.04-.046.008-.01c.022-.03.042-.06.057-.093.013-.03.024-.062.035-.098.01-.03.018-.062.024-.094.004-.032.006-.059.005-.083 0-.029-.003-.057-.005-.085-.004-.028-.01-.055-.017-.082-.006-.021-.014-.042-.022-.063-.03-.07-.072-.13-.109-.18-.011-.015-.021-.027-.033-.038-.035-.027-.075-.05-.131-.079l-.14-.066c-.035-.015-.072-.026-.109-.032l-.044-.004-.045-.002h-.019zm.03.332c.024 0 .047.004.07.01.028.007.055.02.074.03l.02-.002c.024 0 .046.013.057.033.016.031.03.063.043.099.01.026.018.051.024.077.01.04.011.07.006.1-.009.047-.02.1-.046.146-.009.017-.021.039-.036.059l-.03.039c-.014.018-.028.037-.05.053-.01.01-.023.018-.037.026s-.029.016-.044.02l-.022.003h-.037c-.025-.002-.05-.007-.083-.016-.049-.014-.092-.044-.136-.094-.027-.032-.048-.064-.063-.096-.008-.018-.015-.037-.022-.059l-.01-.058.002-.062c.007-.053.014-.102.043-.143.037-.051.085-.108.152-.14.04-.016.083-.025.126-.025zm2.068-.612h-.052l-.087.02-.094.03c-.022.008-.043.018-.062.03-.023.015-.046.03-.069.047-.03.025-.056.05-.077.074-.03.043-.06.09-.084.14-.014.034-.027.065-.036.097-.01.033-.015.067-.02.096-.008.056-.015.114-.012.171.007.049.014.085.025.117.015.033.031.062.05.089l.04.046.044.043.031.03c.035.036.076.078.12.115.01.008.022.015.034.021.034.013.068.02.106.028.056.007.107.011.154.012.032 0 .063 0 .092-.003.027-.004.053-.01.08-.02.071-.03.137-.067.194-.107.034-.027.077-.063.114-.106.019-.024.033-.047.045-.07.014-.035.026-.07.034-.103.01-.035.015-.07.02-.103.005-.03.008-.062.011-.094.002-.026.004-.052.003-.078-.01-.052-.025-.106-.047-.165-.013-.03-.028-.058-.045-.085l-.012-.02-.012-.02-.031-.05-.043-.05-.012-.016-.042-.029c-.015-.009-.03-.016-.045-.023-.06-.025-.12-.043-.182-.054-.04-.004-.086-.01-.133-.01zm.042.22h.02l.02.004h.012l.002.001.006.002h.002c.024.003.05.007.076.017.024.008.049.017.069.032.018.014.039.03.055.05l.022.029.022.028.006.009c.008.008.014.018.017.029.002.011.002.023-.001.034l-.004.009c.006.018.009.037.01.058.001.018 0 .033-.001.047-.006.04-.012.07-.02.1-.02.064-.057.123-.108.165-.023.02-.049.037-.076.052-.018.01-.04.021-.063.027l-.025.005-.025.003-.03.002c-.021 0-.044-.004-.068-.009-.043-.01-.075-.02-.103-.035-.024-.012-.043-.026-.059-.04-.015-.015-.026-.027-.034-.04-.009-.014-.015-.027-.02-.04-.011-.03-.018-.063-.02-.105-.003-.028-.001-.06.005-.102.005-.037.011-.075.023-.112.01-.03.026-.06.048-.092.029-.04.055-.067.084-.085.032-.02.062-.033.09-.038l.033-.004.033-.002h.002zm-3.804-1.003c-.03-.001-.063 0-.097.002l-.016.019-.02.009-.015.002c-.053.007-.108.014-.159.033l-.05.024-.054.033c-.012.016-.022.023-.033.024-.02.017-.04.036-.063.062-.024.033-.047.066-.067.098-.022.033-.042.07-.06.108-.02.046-.034.096-.043.15-.008.065-.008.136-.001.224.005.036.01.065.019.092.01.035.021.07.034.104.008.019.02.037.034.058.03.038.063.072.098.101.02.015.04.03.062.044l.031.017.034.016.13.052c.05.02.097.034.142.041l.045.005.045.002h.044l.04-.005.043-.008.037-.011.026-.012.025-.011.02-.008.038-.018c.034-.018.063-.036.088-.053.022-.017.04-.035.058-.056.019-.023.036-.05.053-.08.014-.024.026-.05.039-.078.012-.029.022-.058.032-.087l.018-.05.022-.063c.006-.022.01-.044.015-.067.006-.038.01-.084.008-.13-.002-.038-.006-.08-.012-.131-.004-.027-.01-.056-.02-.085l-.024-.07c-.013-.033-.029-.061-.047-.087-.026-.031-.053-.064-.084-.091-.023-.016-.048-.027-.073-.04l-.063-.028c-.042-.017-.084-.03-.127-.038-.056-.008-.105-.012-.152-.013zm-.136.284.014.001c.062.007.12.028.178.05.013-.008.028-.012.044-.012.014 0 .027.004.04.01.015.01.032.02.047.033l.015.016.015.02c.01.013.016.02.02.029l.018.03.013.027.005.01c.01.02.019.04.025.061.006.025.01.051.01.077 0 .027-.004.054-.01.081-.003.02-.008.041-.014.061-.011.037-.03.076-.062.124-.045.071-.091.12-.144.152-.038.023-.084.034-.14.033-.023 0-.048-.003-.076-.008-.05-.008-.089-.019-.126-.036-.023-.01-.047-.023-.068-.042l-.03-.031c-.024-.03-.043-.064-.06-.107-.01-.026-.022-.057-.028-.09-.016-.091-.013-.169.01-.236.015-.039.03-.071.046-.1.015-.024.034-.049.06-.076.015-.015.03-.028.046-.039.019-.012.04-.02.055-.026.024-.009.052-.013.083-.012zm3.828-1.166h-.038l-.02.005-.02.006-.029.015c-.015.013-.03.027-.045.046l-.032.044-.025.044-.02.053-.015.049-.005.016c-.014.046-.034.106-.067.16l-.046.067-.052.061c-.022.023-.038.04-.056.055l-.015.011-.017.013-.036.026-.031.02-.032.02c-.098.056-.193.109-.293.146l-.07.025-.079.024-.044.012-.115.03-.08.018-.088.012-.047.004-.036.002-.043.004h-.037l-.082-.008-.086-.023-.074-.025c-.027-.009-.056-.019-.085-.032l-.051-.024-.02-.01c-.026-.012-.045-.022-.063-.034-.047-.029-.087-.057-.123-.088l-.03-.027-.028-.028-.037-.038-.015-.013-.03-.028-.015-.014-.009-.008-.009-.009-.032-.03c-.052-.039-.1-.069-.147-.092-.03-.011-.058-.02-.087-.025l-.023-.002-.03.001-.036.009-.022.011-.021.013-.012.012-.01.016c-.006.013-.009.026-.011.04l-.002.03c.003.019.009.038.016.057.01.024.024.048.044.078l.05.053.05.045.02.015.032.025.031.025.026.022.022.02.02.019.036.027.008.007.007.005.002.001.001.002.03.023.034.024.032.019.032.018.018.01c.045.023.09.048.138.07.064.024.136.045.226.067l.045.01.046.008.037.007.032.006.08.014c.04.006.08.012.12.016.043.004.086.005.13.007l.034.002h.091c.04-.002.078-.005.118-.009.039-.005.069-.01.097-.015l.114-.024.049-.012.046-.015.027-.009.057-.019.002-.001.098-.048.091-.05.094-.055.044-.026.041-.028.058-.045.035-.027c.031-.025.068-.055.103-.086l.044-.043.042-.045.01-.01.083-.093c.04-.052.075-.112.108-.183l.015-.043.012-.048.002-.012.016-.077c.004-.032.006-.058.004-.082-.003-.02-.007-.037-.013-.053l-.008-.015-.01-.015-.023-.005-.015-.01-.022-.023-.017-.017-.013-.007c-.013-.005-.028-.01-.045-.013h-.011zm1.53-.152c-.033 0-.064 0-.093.003-.05.008-.1.021-.153.041-.017.008-.034.015-.05.024-.019.01-.036.021-.052.032-.044.034-.085.074-.125.122-.017.022-.03.04-.04.058-.01.017-.018.034-.026.052-.011.027-.02.052-.028.077-.007.024-.011.048-.016.074-.01.078-.012.16-.004.245.01.07.021.144.048.215l.027.057.03.051.016.023.05.076c.026.033.057.065.096.098l.037.023.038.022.015.008c.021.011.042.023.064.033.03.012.062.02.091.025.037.005.08.01.124.011.02 0 .038 0 .058-.002.064-.009.125-.024.182-.045.026-.011.05-.024.076-.036.03-.015.052-.028.072-.042.024-.02.052-.044.076-.07l.055-.081.046-.085.025-.067c.007-.024.013-.05.018-.08.005-.035.01-.076.01-.117.001-.03 0-.063-.004-.1l-.02-.109-.028-.095-.012-.026-.015-.033-.016-.036-.019-.037-.015-.028-.026-.047c-.01-.017-.022-.034-.035-.05-.008-.011-.017-.021-.03-.033-.03-.027-.061-.053-.093-.079-.013-.01-.027-.018-.043-.027-.034-.013-.071-.023-.113-.031-.05-.006-.1-.01-.15-.012l-.047-.002zm.112.314h.013l.012.004c.049.02.09.036.125.06.03.022.062.045.086.072.026.03.05.066.072.107.023.042.037.077.044.112.01.045.008.092-.004.145-.011.046-.027.087-.047.124-.012.02-.027.04-.043.058-.018.022-.04.037-.063.054-.048.034-.101.057-.156.069l-.082.008-.023-.002c-.045-.003-.082-.012-.117-.028l-.034-.016-.032-.02-.01-.008c-.014-.01-.029-.022-.041-.035-.036-.039-.062-.086-.074-.131-.011-.044-.015-.09-.011-.131.01-.108.04-.187.091-.241.024-.025.048-.05.073-.072.029-.027.063-.048.102-.065l.03-.01.005-.009c.013-.02.034-.036.058-.042.008-.002.017-.003.026-.003zm-5.165-1.945-.018.001c-.025.001-.05.004-.074.008h-.006l-.054.008-.065.016-.064.02c-.044.014-.088.029-.13.049-.035.016-.07.036-.101.058-.036.025-.07.055-.102.085-.03.026-.06.054-.085.085l-.09.115c-.024.032-.048.065-.07.1-.02.033-.037.07-.053.106-.02.044-.038.09-.055.135l-.022.058-.02.058-.018.055-.006.012c-.032.063-.057.128-.078.195s-.036.136-.059.202l-.03.09-.028.087c-.019.057-.04.113-.058.17-.017.057-.034.114-.056.169-.016.034-.034.066-.047.101l-.028.075-.007.018c-.012.032-.001.067.021.093.022.025.052.03.083.032l.028.002.029-.001.044-.001.115.006.11.012.107.015.047.01.047.01c.04.007.081.012.122.014l.053.005.052.006.223.017.11.01.057.006.113.01.056.004.108.003.108-.009h-.037c.066-.001.133-.002.198-.015l.081-.016c.026-.006.052-.013.077-.022.053-.019.102-.045.149-.077.027-.02.052-.04.077-.064l.033-.033.035-.026c.022-.018.042-.04.061-.061.02-.024.042-.047.06-.071l.02-.03.039-.075.02-.045.032-.076.03-.078.062-.172.001-.026.001-.005.006-.018v-.02c-.003-.012-.01-.023-.02-.03-.007-.004-.015-.006-.023-.006l-.022.005-.016.018-.014.032-.005.011-.003.005-.002.005-.017.042-.034.073-.051.104-.042.09c-.017.027-.035.053-.054.078l-.028.03-.03.028-.07.06-.083.052c-.058.031-.118.057-.179.082-.046.018-.093.033-.141.047-.049.015-.1.023-.15.03l-.106.007c-.037 0-.074-.002-.11-.004-.076-.006-.152-.01-.227-.02-.038-.004-.076-.006-.113-.008l-.109-.01c-.071-.004-.142-.012-.213-.022-.028-.005-.054-.012-.081-.019-.037-.01-.074-.015-.111-.02l-.046-.008-.05-.008-.05-.007-.074-.01.02-.04.01-.044.016-.062c.01-.04.02-.079.028-.119.018-.08.044-.157.066-.236.045-.16.088-.322.135-.482.018-.063.037-.125.058-.187.019-.059.039-.117.062-.175.038-.078.09-.149.14-.218.047-.056.102-.106.158-.15.043-.031.09-.056.14-.077.079-.032.16-.06.245-.072.062-.006.124-.008.186-.006.03 0 .06.003.09.005l.08.006.033.008c.027.006.056-.003.07-.027.006-.005.01-.01.012-.017l.001-.011-.002-.01v-.015c-.005-.022-.021-.042-.044-.048-.046-.011-.092-.016-.138-.022l-.064-.007-.064-.006-.035-.002h-.024l-.02-.002h-.039zm.072.63h-.014c-.023.004-.043.01-.062.015-.036.018-.067.035-.094.054l-.046.043-.038.046-.01.01-.017.022-.018.021-.011.013-.055.065c-.028.035-.051.07-.072.104-.062.104-.125.214-.186.328-.023.043-.045.08-.065.111l-.031.046-.02.027-.014.018-.01.014.206.003.093-.006.098-.013.072-.01.071-.008.012-.001c.08-.01.165-.022.247-.041l.06-.015.06-.017.015-.004.08-.026c.025-.01.049-.024.072-.04.026-.02.048-.045.076-.079.018-.024.035-.051.05-.08l.01-.04c.003-.025.003-.046.002-.065l-.007-.032-.01-.035-.033-.07-.018-.034-.02-.032-.042-.052-.018-.024-.018-.023-.047-.054-.05-.052-.012-.012-.006-.006-.004-.007-.009-.005c-.026-.016-.053-.03-.081-.044l-.037-.011-.017-.002h-.032zm1.76-.877-.027.013-.085.041c-.04.02-.077.043-.11.063-.068.043-.136.092-.204.142l-.124.088-.124.083-.037.025-.053.033-.054.032-.01.006-.017.01-.026.016-.01.006-.014.008-.013.008-.024.014-.024.015-.024.015-.028.024.02.037.027.04.024.03c.016.02.032.039.046.06.02.029.037.061.052.102l.017.048.017.053.009.03.005.011.032-.019.007-.004.02-.012.018-.01c.016-.009.031-.018.048-.026l.035-.017.035-.016.026-.011.013-.006.077-.034.038-.017.047-.019.05-.018.012-.005.06-.022.063-.025.056-.019.039-.012c.035-.01.06-.018.085-.027l.075-.027.074-.028.07-.026.038-.017.014-.006.067-.029c.034-.014.072-.03.108-.05-.016-.015-.032-.031-.05-.046l-.022-.018c-.015-.012-.03-.024-.043-.038-.023-.023-.044-.047-.065-.071-.022-.025-.04-.053-.06-.088l-.023-.038-.024-.038-.03-.052-.012-.018-.015-.026-.013-.02-.013-.018-.016-.023c-.012-.018-.022-.037-.03-.057zm.627-1.132c-.027-.087-.725.378-1.22.746-.494.369-.847.578-.81.718.398-.324 1.69-1.27 2.03-1.464zm3.397-.827c-.021 0-.043.001-.064.003-.045.006-.091.016-.14.027-.046.01-.094.022-.151.039-.04.011-.087.026-.131.042l-.028.01-.028.011-.017.007-.066.025-.07.024-.068.024-.035.01-.074.026-.074.026-.022.008c-.068.023-.128.045-.181.066l-.031.012-.03.012-.068.025-.045.018-.031.012-.054.022-.054.023-.082.035-.044.02-.067.03-.01.005-.03.014-.024.01-.133.06-.127.054-.127.052-.008.003-.058.023-.057.024-.07.031-.073.035-.04.019c-.063.03-.127.064-.181.092l-.088.047-.088.047-.104.053-.105.055-.074.038-.073.04-.017.009-.069.04-.087.06-.07.053-.071.052-.018.014-.032.023-.03.023-.012.01-.063.046.021.04.026.039.015.02.012.016.03.04.003.006.021.03c.04.05.087.096.132.14l.055.055.045.05.04.054.013.017.022.03.02.029.01.013.022.03.022.025.023.024.022.023.017.013c.023-.005.045-.013.065-.02l.001-.001.002-.001h.002l.059-.027.054-.028.041-.022.009-.004.08-.045.113-.065.05-.027.16-.09.02-.01.076-.042.078-.047.039-.026c.037-.024.076-.049.112-.075l.031-.023.03-.02.011-.01c.067-.05.136-.097.204-.14.06-.041.119-.082.188-.132l.126-.099.028-.023.029-.024.01-.009.069-.056c.1-.081.208-.154.29-.208.063-.04.124-.085.178-.124.045-.033.09-.065.136-.096l.135-.089c.058-.037.125-.08.186-.124l.118-.097.122-.107.015-.013.033-.029c.03-.025.06-.05.086-.077.037-.037.07-.074.103-.113l.026-.036c.006-.009.01-.018.015-.028l.005-.013.004-.017-.006-.01-.01-.01-.02-.013-.036-.01zm-5.16.135c-.026 0-.052 0-.078.002-.068.01-.138.027-.207.054-.08.033-.159.077-.235.132l-.034.027-.026.027c-.031.042-.056.081-.074.121-.016.035-.027.075-.036.123-.006.042-.009.087-.01.143l.002.061.006.064-.001-.001.007.04.012.043c.02.046.046.091.076.134l.079.095c.03.034.057.062.087.088.018.013.034.023.05.031.068.028.144.049.225.063.056.007.1.01.142.011.028 0 .054 0 .08-.002.056-.01.11-.03.16-.049.03-.013.059-.026.085-.041.024-.014.047-.03.069-.045l.038-.031c.015-.013.028-.029.044-.048.03-.038.054-.071.073-.108.018-.045.031-.089.04-.134.008-.063.015-.12.01-.18-.009-.064-.027-.133-.057-.21-.012-.028-.024-.052-.036-.074l-.02-.033-.02-.027-.036-.045-.027-.033c-.024-.029-.05-.059-.079-.084-.02-.014-.041-.027-.067-.039l-.076-.03c-.02-.007-.037-.018-.048-.032l-.04-.008c-.026-.003-.052-.005-.077-.005zm-.063.345c.03 0 .062.007.091.015.041.013.079.035.117.055.007.003.012.008.017.014.014.009.028.02.04.033l.021.029.053.075c.022.033.037.072.045.111.01.05.01.099 0 .149-.001.01-.003.021-.007.032-.006.02-.012.042-.023.06-.014.02-.03.041-.049.06-.016.015-.034.03-.053.042-.02.012-.04.02-.061.029-.032.012-.065.022-.098.027-.025.004-.05.007-.074.006-.017 0-.035-.002-.053-.004l-.074-.01c-.033-.007-.068-.016-.096-.037-.02-.015-.038-.031-.054-.051-.014-.02-.027-.04-.037-.062-.017-.033-.03-.07-.037-.107-.009-.04-.012-.085-.006-.127.003-.025.007-.05.013-.073.007-.029.018-.056.03-.082.016-.036.044-.067.072-.093.026-.025.054-.046.087-.06.017-.008.035-.017.054-.022.02-.004.04-.007.06-.008h.022z" fill="#fff" mask="url(#i)"/></g><g transform="translate(12.607 22.062)"><use fill="#00b0f1" xlink:href="#e"/><path d="m12.045 6.13-.023.012h-.007c-.009 0-.018.001-.027.004-.017-.003-.036-.004-.056-.004l-.052.003c-.033.003-.066.008-.1.013l-.04.006-.13.02c-.09.014-.174.023-.257.027l-.024.001c-.04.002-.08.003-.119.006-.025.001-.05.003-.074.006l-.048.004c-.198.015-.395.019-.545.02l-.081.001-.125.001h-.063c-.07-.002-.139-.007-.207-.011l-.064-.005c-.053-.003-.105-.009-.157-.014-.039-.004-.078-.008-.116-.01l-.108-.01c-.05-.006-.102-.01-.153-.014l-.08-.006c-.063-.004-.127-.008-.192-.014-.073-.007-.17-.016-.268-.02-.2-.01-.397-.013-.563-.013-.204-.002-.407-.002-.61-.002h-.469c-.067.001-.135.006-.2.01l-.061.004c-.078.004-.16.008-.266.01-.087.003-.174.004-.261.005h-.049c-.073 0-.148 0-.222.006h-.011c-.08.006-.162.012-.242.022-.098.011-.19.03-.276.056-.044.013-.088.031-.125.047-.042.018-.082.04-.12.066-.04.029-.077.06-.113.097-.024.026-.048.056-.07.084l-.023.03c-.033.039-.065.08-.096.12l-.054.069c-.055.07-.103.138-.148.208l.01-.015c-.047.073-.091.151-.134.227l-.012.02c-.05.091-.099.185-.139.265l-.012.024-.053.103-.035.067-.03.058c-.042.08-.087.158-.13.234l-.01.017-.036.06-.04.067c-.021.038-.044.076-.067.113l-.004.008-.076.128-.06.1-.018.03-.015.025-.06.1-.064.118c-.023.046-.053.102-.068.162l-.002.009v.009c-.003.013-.003.026 0 .04v.007l.001.008.012.03c.014.033.05.042.06.044l.03.003c.035 0 .068-.01.097-.022.025-.01.049-.023.073-.036.024-.014.046-.03.067-.046.046-.034.09-.073.13-.11.05-.046.097-.096.143-.144.035-.036.069-.072.105-.107.096-.09.199-.172.298-.253l.06-.048c.058-.047.115-.097.175-.153.045-.04.089-.084.132-.127l.05-.048-.013.01.02-.017.02-.018.07-.064.016-.014.04-.035.06-.054c.024-.022.05-.042.076-.061l.02-.017.007-.005c.031-.024.063-.05.097-.07.035-.016.072-.023.11-.03.052-.008.105-.012.157-.014l.037-.001c.04 0 .08.002.119.005h.004l.167.01h.049c.032.002.065.003.097.006.008.002.016.004.024.008l.004.002.004.008.005.028c.005.054 0 .106-.003.15l-.01.092-.007.079c-.01.105-.014.212-.017.313l-.004.16c0 .06-.002.12-.004.182-.004.11-.01.217-.019.318l-.005.062-.002.02-.01.075-.008.071-.013.092-.01.068c-.013.105-.019.21-.023.336l-.002.104-.002.053c0 .041-.003.083-.006.124l-.002.036c-.006.103-.01.212-.014.333l-.002.101c-.001.083-.003.17-.008.254l-.002.042-.008.138-.016.164c-.013.114-.031.22-.054.323-.021.097-.05.197-.084.298-.031.09-.068.178-.108.263-.022.047-.044.088-.067.126l-.02.034c-.016.027-.032.054-.05.08-.025.042-.048.075-.073.106l-.066.075-.02.022-.126.135-.058.061-.094.105c-.033.04-.063.083-.09.121-.053.077-.106.16-.157.25-.047.081-.09.169-.13.26-.04.097-.082.203-.107.316-.01.05-.015.102-.02.153l-.001.015c-.006.058-.006.113-.002.162.004.05.01.108.027.167.012.044.03.089.054.136.022.042.048.083.083.136.03.044.058.082.087.116.013.017.027.032.042.047.043.045.099.081.165.108.032.012.065.02.098.027l.016.003.069.014c.04.007.082.011.13.011.05 0 .098-.004.135-.007l.056-.008.007-.001.017-.002.058-.01c.022-.005.044-.01.066-.017.018-.005.035-.011.052-.018l.016-.006c.062-.024.118-.064.17-.103.034-.026.07-.059.106-.1.066-.072.12-.158.172-.242l.002-.005c.025-.04.048-.08.075-.129.024-.044.046-.085.066-.127.042-.086.078-.185.113-.312.03-.102.054-.205.077-.305.019-.077.034-.158.048-.236l.014-.073c.02-.103.035-.205.05-.31.006-.048.012-.1.018-.168.005-.061.01-.116.012-.169l.005-.101c.003-.07.006-.141.011-.212l.023-.32.011-.17.012-.168c.003-.056.007-.112.012-.167l.01-.112.004-.047.01-.094.011-.098c.02-.154.039-.313.055-.471l.002-.014c.01-.098.022-.199.027-.3l.003-.059.005-.104.006-.097.005-.068.01-.161.007-.071.007-.087c.008-.122.012-.245.015-.337.004-.118.005-.234.006-.322v-.168l.006-.17c.005-.107.01-.214.013-.32.002-.074.007-.149.012-.22l.007-.095.008-.173.002-.078c0-.03 0-.06.002-.09l.003-.002c.011-.01.024-.019.038-.027.053-.024.11-.036.165-.047l.007-.002.119-.023c.074-.01.155-.019.255-.025.09-.005.178-.01.266-.018.19-.018.38-.022.539-.024l.244-.001h.052l.058-.001c.037 0 .085 0 .133.007l.023.007.009.006.01.017.006.036c.003.048.003.094 0 .136l-.012.113-.003.029c-.008.065-.017.129-.027.193l-.016.114c-.014.098-.03.2-.05.304l-.058.296-.006.028-.025.125c-.01.047-.017.095-.025.142l-.003.018c-.01.055-.017.109-.025.163l-.007.046-.014.1c-.01.082-.017.166-.024.246l-.008.087c-.02.23-.025.465-.028.666-.003.227-.003.457-.003.656v.67c0 .05.002.1.004.151.002.057.004.109.01.16.011.12.024.227.04.328.014.09.033.188.059.309l.004.018.031.141.027.109.013.05.04.153.008.032.03.114.017.054.03.098c.018.054.036.107.055.158.032.086.068.174.115.28.038.084.084.173.142.272.04.068.094.156.161.23.032.035.067.068.097.096.035.033.07.063.107.088l.009.006c.038.027.078.055.12.075.016.008.033.017.05.024.024.01.047.018.066.023.048.013.098.02.14.025.038.005.082.01.125.012h.059c.028 0 .053 0 .077-.002.048-.005.096-.016.137-.026.07-.018.146-.047.238-.09.038-.017.076-.036.115-.055l.01-.005c.04-.019.08-.039.12-.062.086-.05.167-.114.229-.164.072-.059.142-.123.213-.196.028-.028.056-.058.082-.088l.019-.021.029-.033.063-.071c.03-.035.061-.073.09-.113.03-.041.059-.085.088-.134.05-.083.093-.173.129-.267.02-.051.037-.105.051-.151l.02-.06.026-.081.042-.148.023-.092.015-.06c.025-.095.035-.195.042-.315.007-.105.008-.21.008-.308 0-.053-.006-.092-.022-.125-.018-.037-.052-.063-.102-.077-.02-.005-.04-.007-.064-.007l-.06.003-.02.002h-.031c-.026 0-.051-.001-.077-.003l-.016-.001h-.016c-.034 0-.062.006-.085.02-.02.012-.036.027-.052.046-.01.011-.017.025-.025.039l-.004.007c-.01.016-.017.033-.024.05l-.003.006-.023.054-.006.016-.01.026c-.016.037-.031.075-.049.111-.015.032-.031.063-.048.093l-.018.034c-.018.035-.038.07-.06.104-.022.032-.04.059-.06.083s-.044.05-.074.078c-.117.108-.229.188-.34.248l-.01.004c-.027.013-.056.026-.085.037-.031.01-.065.02-.104.027-.027.004-.05.006-.072.006-.023 0-.043-.001-.066-.004-.022-.004-.044-.01-.067-.018-.022-.007-.044-.017-.064-.028-.023-.011-.04-.022-.056-.033-.021-.014-.042-.03-.063-.05-.033-.033-.064-.073-.098-.124-.048-.079-.094-.164-.14-.259l-.034-.069-.033-.068c-.02-.043-.037-.09-.052-.133-.019-.063-.033-.123-.043-.184-.01-.055-.016-.109-.024-.173-.01-.098-.022-.219-.03-.336-.009-.11-.01-.222-.012-.33v-.008c0-.04 0-.081.002-.122v-.024l.003-.083.002-.082.006-.328.003-.227v-.111c.002-.086.006-.172.01-.256l.004-.064c.003-.063.008-.125.012-.188l.01-.153.003-.049.006-.098.012-.164.004-.08c.005-.094.01-.19.02-.285.004-.037.009-.074.015-.11.008-.048.017-.096.029-.146.02-.09.04-.18.062-.269l.02-.088.01-.039.017-.07.016-.064.015-.061.014-.061c.011-.046.02-.093.025-.145l-.003.016c.004-.03.007-.059.007-.088v-.014c.029.01.059.017.09.021.024.004.05.004.074.004h.024l.089.003.2.012.025.002c.05.004.104.008.156.008h.166c.247 0 .437-.003.613-.01.067-.004.134-.01.2-.018.03-.004.062-.01.102-.02l.04-.009.007-.002c.057-.013.094-.038.112-.076.015-.03.018-.066.02-.098.002-.02.004-.039.004-.059v-.108l.001-.224v-.393c0-.066-.001-.135-.01-.201-.006-.054-.029-.105-.047-.143-.016-.031-.036-.06-.05-.082-.004.013-.006.025-.007.038-.012-.01-.026-.019-.04-.025-.022-.01-.044-.015-.065-.015-.02 0-.041.004-.062.013z" fill="#fff" mask="url(#j)"/></g><g fill="#202e66" fill-rule="nonzero" transform="translate(50.798 10.011)"><path d="m4.58 12.68c.798 0 1.54-.146 2.227-.44.687-.293 1.242-.716 1.665-1.268.422-.551.634-1.209.634-1.972 0-.599-.088-1.107-.265-1.524-.176-.416-.44-.763-.792-1.039s-.796-.502-1.33-.678-1.153-.329-1.858-.458c-.54-.105-1.004-.226-1.391-.36-.388-.136-.684-.318-.89-.547-.205-.229-.308-.52-.308-.872 0-.293.088-.551.264-.774.176-.224.438-.4.784-.529s.772-.194 1.277-.194c.305 0 .634.05.986.15s.687.223 1.004.37.57.302.757.467c.141.105.3.158.476.158.27 0 .505-.105.704-.317.2-.211.3-.446.3-.704 0-.353-.17-.664-.511-.934-.41-.352-.942-.643-1.594-.872s-1.359-.343-2.122-.343c-.81 0-1.55.14-2.22.423-.669.281-1.2.692-1.593 1.233-.394.54-.59 1.191-.59 1.955 0 .504.082.96.246 1.364.165.406.408.758.731 1.057.323.3.725.546 1.207.74.481.194 1.039.338 1.673.431.67.094 1.221.226 1.655.397.435.17.758.378.97.625.21.247.316.546.316.898 0 .294-.111.555-.335.784-.223.229-.516.41-.88.546-.364.135-.763.202-1.198.202-.646 0-1.189-.093-1.629-.281s-.883-.464-1.33-.828c-.176-.141-.375-.211-.598-.211-.294 0-.538.102-.731.308-.194.205-.291.443-.291.713 0 .164.041.329.123.493.082.165.2.311.353.44.598.517 1.227.878 1.884 1.084.658.205 1.397.308 2.22.308zm11.467-.175c.34 0 .62-.103.836-.308.218-.206.326-.461.326-.767v-9.228h2.765c.286 0 .529-.08.727-.24l.04-.033c.205-.182.308-.426.308-.731 0-.306-.103-.552-.309-.74-.205-.188-.46-.282-.766-.282h-7.82c-.305 0-.56.091-.766.273-.205.182-.308.426-.308.731s.103.552.308.74c.206.188.461.282.766.282h2.765v9.228c0 .288.094.53.281.73l.037.037c.21.205.48.308.81.308zm14.567 0c.305 0 .56-.094.766-.282s.308-.429.308-.722c0-.27-.102-.508-.308-.713-.205-.206-.46-.309-.766-.309h-4.773v-3.258h3.98c.287 0 .529-.08.727-.24l.04-.033c.205-.182.308-.42.308-.713 0-.306-.103-.555-.308-.749-.206-.193-.461-.29-.767-.29h-3.98v-2.994h4.773c.286 0 .529-.08.727-.24l.04-.033c.205-.182.307-.42.307-.714 0-.305-.102-.555-.308-.748-.205-.194-.46-.29-.766-.29h-5.9c-.305 0-.56.102-.766.307-.206.206-.309.461-.309.766v10.18c0 .306.103.561.309.767.205.205.46.308.766.308zm12.612.088c.247 0 .473-.094.678-.282.206-.188.309-.44.309-.757 0-.13-.03-.27-.088-.423l-4.333-10.32c-.082-.224-.214-.397-.396-.52-.182-.124-.38-.185-.59-.185-.223-.024-.432.029-.626.158-.193.13-.337.311-.431.546l-4.386 10.532c-.035.118-.052.23-.052.335 0 .258.076.476.228.652.153.176.388.264.705.264.2 0 .385-.062.555-.185s.296-.297.378-.52l.914-2.148h5.252l.915 2.13c.086.205.204.37.354.496l.042.033c.17.13.36.194.572.194zm-2.752-4.879h-3.522l1.753-4.122zm16.668 4.79c.329 0 .593-.102.792-.307.2-.206.3-.461.3-.767v-10.197c0-.317-.112-.575-.335-.775s-.475-.3-.757-.3c-.352 0-.64.159-.863.476l-3.95 5.902-3.835-5.902c-.084-.127-.205-.232-.36-.316l-.054-.028c-.182-.088-.355-.132-.52-.132-.304 0-.566.105-.783.317-.217.21-.326.463-.326.757v10.198c0 .306.094.561.282.767.188.205.429.308.722.308.305 0 .552-.103.74-.308.188-.206.282-.461.282-.767v-7.254l2.906 4.595c.092.113.205.212.338.299l.058.036c.158.094.314.135.467.123.164.012.326-.03.484-.123.159-.094.29-.206.396-.335l2.906-4.43v7.09c0 .286.09.528.271.726l.038.04c.205.205.472.308.8.308z"/><path d="m.674 20.406v-1.5h1.564v-.46h-1.564v-1.217h1.89v-.462h-2.379v3.639h.49zm6.591.081c.275 0 .529-.05.76-.149.232-.1.435-.236.609-.41s.309-.376.404-.606c.096-.23.144-.475.144-.736 0-.26-.048-.506-.144-.736-.095-.23-.23-.431-.404-.605s-.377-.31-.608-.41c-.232-.1-.486-.15-.76-.15-.276 0-.53.05-.761.15-.232.1-.435.236-.609.41-.173.174-.308.376-.404.605-.096.23-.144.476-.144.736 0 .261.048.506.144.736s.23.432.404.606.377.31.609.41c.231.1.485.15.76.15zm0-.478c-.271 0-.514-.062-.728-.187-.213-.125-.382-.294-.505-.508-.123-.213-.185-.456-.185-.728 0-.271.062-.515.185-.73.123-.216.292-.385.505-.508.214-.123.457-.185.728-.185.272 0 .514.062.728.185s.382.292.505.508c.123.215.185.459.185.73 0 .272-.062.515-.185.728-.123.214-.291.383-.505.508s-.456.187-.728.187zm5.315.397v-1.52l1.564 1.52h.75l-1.695-1.52c.108.006.195.01.26.01.21 0 .414-.039.612-.117.197-.078.36-.194.488-.35.129-.156.193-.346.193-.57 0-.25-.062-.456-.187-.617s-.284-.28-.475-.358c-.192-.078-.393-.117-.603-.117h-1.396v3.639zm.809-1.907c-.138 0-.277-.009-.418-.027-.142-.018-.272-.043-.391-.076v-1.166h.825c.236 0 .436.054.6.162.165.11.247.265.247.468 0 .195-.075.35-.225.467-.15.116-.363.173-.638.173zm9.266 1.907 1.7-3.64h-.587l-1.244 2.814-1.227-2.813h-.587l1.7 3.639zm6.107 0v-.462h-.614v-2.714h.614v-.462h-1.716v.462h.613v2.715h-.613v.462h1.716zm5.727 0v-.462h-2.004v-1.173h1.77v-.462h-1.77v-1.08h2.004v-.462h-2.493v3.639zm4.38-.016v-3.161h1.255v-.462h-2.998v.462h1.255v3.16h.489zm4.538.016v-2.602l2.363 2.602h.185v-3.64h-.49v2.635l-2.362-2.634h-.184v3.639zm5.825 0 .386-.87h1.706l.38.87h.586l-1.7-3.64h-.244l-1.7 3.64zm1.89-1.33h-1.302l.657-1.484.647 1.483zm4.348 1.33v-2.634l1.152 1.2h.13l1.124-1.2v2.634h.49v-3.64h-.153l-1.526 1.668-1.554-1.667h-.152v3.639h.49z" stroke="#202e66" stroke-width=".5"/></g></g></svg>